<svg width="65" height="79" viewBox="0 0 65 79" fill="none" xmlns="http://www.w3.org/2000/svg">
<path d="M0.718625 73.6914C8.32396 69.3927 15.3093 64.474 21.6746 58.9354C28.04 53.314 33.0826 47.5274 36.8026 41.5753C40.6053 35.6233 42.5066 30.002 42.5066 24.7114C42.5066 20.1647 41.1426 16.5687 38.4146 13.9233C35.6866 11.1953 31.8013 9.83135 26.7586 9.83135C22.0466 9.83135 17.996 10.782 14.6066 12.6833C11.2173 14.502 8.07596 16.7753 5.18263 19.5033L1.21463 13.9233C4.10796 10.534 8.24129 7.47535 13.6146 4.74735C18.988 1.93668 24.7333 0.531349 30.8506 0.531349C36.6373 0.531349 41.5146 1.60602 45.4826 3.75535C49.4506 5.82202 52.3853 8.55002 54.2866 11.9394C56.188 15.3287 57.1386 19.0487 57.1386 23.0994C57.1386 31.2834 53.212 39.7154 45.3586 48.3954C37.5053 56.9927 27.668 64.722 15.8466 71.5834L54.2866 68.7314L58.6266 58.0674L64.9506 59.3074L61.7266 78.8994H2.57863L0.718625 73.6914Z" fill="#D4A45B" fill-opacity="0.2"/>
</svg>
