<svg width="58" height="99" viewBox="0 0 58 99" fill="none" xmlns="http://www.w3.org/2000/svg">
<path d="M13.2336 98.8634C11.3323 98.8634 9.22429 98.6981 6.90963 98.3674C4.59496 98.1194 2.65229 97.7887 1.08163 97.3754V90.3074C3.80963 91.1341 7.07496 91.5474 10.8776 91.5474C17.4083 91.5474 23.0296 90.5141 27.7416 88.4474C32.5363 86.3807 36.1736 83.5701 38.6536 80.0154C41.2163 76.4607 42.4976 72.5754 42.4976 68.3594C42.4976 62.7381 40.7616 58.3981 37.2896 55.3394C33.9003 52.1981 28.651 50.5861 21.5416 50.5034L17.6976 51.4954C14.9696 52.3221 13.647 52.6941 13.7296 52.6114L11.6216 46.0394C15.0936 45.3781 18.359 44.3861 21.4176 43.0634C26.543 40.9141 30.6763 38.0621 33.8176 34.5074C36.959 30.8701 38.5296 27.0261 38.5296 22.9754C38.5296 18.2634 37.1243 14.8327 34.3136 12.6834C31.5856 10.4514 28.0723 9.33541 23.7736 9.33541C20.0536 9.33541 16.4576 9.99674 12.9856 11.3194C9.59629 12.6421 6.66163 14.2541 4.18163 16.1554L0.833625 10.5754C3.14829 8.26074 6.82696 6.02874 11.8696 3.87941C16.995 1.64741 22.203 0.53141 27.4936 0.53141C35.0163 0.53141 41.0923 2.18474 45.7216 5.49141C50.351 8.71541 52.6656 13.6754 52.6656 20.3714C52.6656 26.2407 50.351 31.5727 45.7216 36.3674C41.0923 41.1621 35.595 44.6754 29.2296 46.9074C30.0563 46.8247 31.2136 46.7834 32.7016 46.7834C37.579 46.7834 41.8776 47.6927 45.5976 49.5114C49.3176 51.3301 52.1696 53.8101 54.1536 56.9514C56.2203 60.0101 57.2536 63.4821 57.2536 67.3674C57.2536 73.4021 55.435 78.8167 51.7976 83.6114C48.1603 88.4061 42.9936 92.1261 36.2976 94.7714C29.6843 97.4994 21.9963 98.8634 13.2336 98.8634Z" fill="#D4A45B" fill-opacity="0.2"/>
</svg>
