<svg width="55" height="100" viewBox="0 0 55 100" fill="none" xmlns="http://www.w3.org/2000/svg">
<path d="M1.031 92.9687C3.34567 93.2167 5.82567 93.3407 8.471 93.3407C14.3403 93.3407 19.7137 92.142 24.591 89.7447C29.4683 87.3474 33.3123 84.0407 36.123 79.8247C38.9337 75.6087 40.339 70.814 40.339 65.4407C40.339 52.1314 34.1803 45.4767 21.863 45.4767C19.135 45.4767 16.0763 45.89 12.687 46.7167C9.38033 47.4607 6.487 48.37 4.007 49.4447L0.659001 47.0887L6.735 2.44871H42.075L43.315 0.0927062H51.003L48.771 12.8647H15.911L10.207 41.7567C12.439 40.5994 15.291 39.566 18.763 38.6567C22.235 37.7474 25.707 37.2927 29.179 37.2927C37.115 37.2927 43.3563 39.5247 47.903 43.9887C52.4497 48.4527 54.723 54.942 54.723 63.4567C54.723 69.9874 52.8217 76.022 49.019 81.5607C45.299 87.0994 40.0083 91.522 33.147 94.8287C26.2857 98.1354 18.4737 99.7887 9.711 99.7887C6.15633 99.7887 3.263 99.4994 1.031 98.9207V92.9687Z" fill="#D4A45B" fill-opacity="0.2"/>
</svg>
