<svg width="52" height="67" viewBox="0 0 52 67" fill="none" xmlns="http://www.w3.org/2000/svg">
<path d="M7.72176 31.9747L6.98421 32.0801L7.72176 31.9747ZM8.44235 41.2207L7.69763 41.2424L8.44235 41.2207ZM9.15847 45.3752L8.45914 45.6322L9.15847 45.3752ZM19.1012 57.0096L19.0805 57.7543L19.1012 57.0096ZM44.1361 31.9747L43.3986 31.8693L44.1361 31.9747ZM43.4155 41.2207L44.1602 41.2424L43.4155 41.2207ZM42.6994 45.3752L43.3987 45.6322L42.6994 45.3752ZM32.7566 57.0096L32.7774 57.7543L32.7566 57.0096ZM25.023 36.9006C24.6115 36.9006 24.2779 37.2342 24.2779 37.6456C24.2779 38.0571 24.6115 38.3907 25.023 38.3907V36.9006ZM36.5486 6.99607C36.952 6.91537 37.2137 6.52287 37.133 6.11939C37.0523 5.71591 36.6598 5.45424 36.2563 5.53494L36.5486 6.99607ZM10.2912 6.10739C10.6694 5.9453 10.8446 5.50731 10.6825 5.12911C10.5204 4.75091 10.0824 4.57572 9.70424 4.73781L10.2912 6.10739ZM4.71865 17.7223C4.80791 18.124 5.20589 18.3773 5.60756 18.288C6.00923 18.1988 6.2625 17.8008 6.17324 17.3991L4.71865 17.7223ZM25.9289 3.91892C23.9826 3.91892 22.2356 3.43041 20.5468 2.79336C19.6982 2.47325 18.8805 2.12225 18.0494 1.77591C17.2262 1.43286 16.3947 1.09655 15.5556 0.825604C13.8709 0.281594 12.1094 -0.0148116 10.1963 0.416639C8.28549 0.847577 6.31373 1.98381 4.16041 4.13714L5.21405 5.19077C7.2332 3.17161 8.96597 2.2216 10.5241 1.8702C12.08 1.51931 13.5521 1.74446 15.0977 2.24358C15.8738 2.49419 16.6568 2.80984 17.4762 3.15133C18.2878 3.48955 19.1411 3.85569 20.0208 4.18753C21.7887 4.85438 23.7275 5.40899 25.9289 5.40899V3.91892ZM4.16041 4.13714C-0.329989 8.62755 0.357146 14.5128 2.08384 19.6929C2.95185 22.2969 4.1079 24.8006 5.07478 26.9466C6.06411 29.1424 6.81293 30.8811 6.98421 32.0801L8.4593 31.8693C8.25127 30.4131 7.388 28.4534 6.43333 26.3345C5.45621 24.1658 4.33636 21.7384 3.49745 19.2217C1.8103 14.1603 1.35948 9.04535 5.21405 5.19077L4.16041 4.13714ZM6.98421 32.0801C7.45719 35.3909 7.6328 39.0128 7.69763 41.2424L9.18707 41.1991C9.12167 38.9499 8.94409 35.2628 8.4593 31.8693L6.98421 32.0801ZM8.45914 45.6322C9.15931 47.5378 10.3948 50.4791 12.1223 52.9753C13.8231 55.4329 16.1497 57.6726 19.0805 57.7543L19.122 56.2648C16.9492 56.2042 14.9963 54.5098 13.3476 52.1273C11.7255 49.7835 10.5413 46.9787 9.8578 45.1183L8.45914 45.6322ZM25.9289 5.40899C28.1303 5.40899 30.0692 4.85438 31.837 4.18753C32.7167 3.85569 33.57 3.48955 34.3816 3.15133C35.2011 2.80984 35.984 2.49419 36.7601 2.24358C38.3058 1.74446 39.7778 1.51931 41.3337 1.8702C42.8919 2.2216 44.6247 3.17161 46.6438 5.19077L47.6975 4.13714C45.5441 1.98381 43.5724 0.847577 41.6615 0.416639C39.7484 -0.0148116 37.987 0.281594 36.3023 0.825604C35.4632 1.09655 34.6317 1.43286 33.8085 1.77591C32.9774 2.12225 32.1597 2.47325 31.3111 2.79336C29.6223 3.43041 27.8752 3.91892 25.9289 3.91892V5.40899ZM46.6438 5.19077C50.4984 9.04535 50.0476 14.1603 48.3604 19.2217C47.5215 21.7384 46.4016 24.1658 45.4245 26.3345C44.4699 28.4534 43.6066 30.4131 43.3986 31.8693L44.8736 32.0801C45.0449 30.8811 45.7938 29.1424 46.7831 26.9466C47.75 24.8006 48.906 22.2969 49.774 19.6929C51.5007 14.5128 52.1879 8.62755 47.6975 4.13714L46.6438 5.19077ZM43.3986 31.8693C42.9138 35.2628 42.7362 38.9499 42.6708 41.1991L44.1602 41.2424C44.2251 39.0128 44.4007 35.3909 44.8736 32.0801L43.3986 31.8693ZM42.0001 45.1183C41.3165 46.9787 40.1324 49.7835 38.5103 52.1273C36.8615 54.5098 34.9086 56.2042 32.7358 56.2648L32.7774 57.7543C35.7081 57.6726 38.0348 55.4329 39.7356 52.9753C41.4631 50.4791 42.6986 47.5378 43.3987 45.6322L42.0001 45.1183ZM19.0805 57.7543C20.2319 57.7864 21.1727 57.4748 21.8945 56.8373C22.5995 56.2146 23.021 55.3464 23.2789 54.3994C23.787 52.5329 23.7312 50.0619 23.6541 47.6976C23.5747 45.2658 23.4708 42.9213 23.7952 41.0992C23.9559 40.1961 24.2116 39.4921 24.5757 38.9933C24.9231 38.5173 25.3875 38.2006 26.0587 38.0819L25.7991 36.6146C24.7385 36.8022 23.94 37.3368 23.3721 38.1148C22.8209 38.8701 22.5089 39.8231 22.3282 40.8381C21.9696 42.8521 22.0878 45.3881 22.1648 47.7462C22.244 50.1719 22.2788 52.4004 21.8411 54.008C21.6261 54.798 21.3156 55.3606 20.9081 55.7205C20.5174 56.0656 19.9653 56.2883 19.122 56.2648L19.0805 57.7543ZM25.8444 38.0885C26.493 38.1626 26.9317 38.4396 27.2609 38.8753C27.6109 39.3384 27.8618 40.0166 28.0206 40.9108C28.3405 42.7131 28.2395 45.0712 28.1664 47.5327C28.0953 49.9267 28.0496 52.4368 28.5648 54.3361C28.8258 55.2982 29.2494 56.1805 29.9542 56.8145C30.6773 57.4649 31.621 57.7866 32.7774 57.7543L32.7358 56.2648C31.8976 56.2882 31.3452 56.0615 30.9507 55.7067C30.538 55.3355 30.2226 54.7557 30.0029 53.946C29.5567 52.3014 29.583 50.0285 29.6558 47.5769C29.7266 45.1927 29.8414 42.6425 29.4877 40.6504C29.3097 39.6475 29.0014 38.7069 28.4497 37.9769C27.8773 37.2194 27.0717 36.7289 26.0135 36.608L25.8444 38.0885ZM26.0587 36.6146C25.8099 36.5706 25.5938 36.6346 25.4822 36.6732C25.3587 36.716 25.2394 36.7744 25.163 36.8116C25.0701 36.8569 25.0186 36.8821 24.9734 36.8998C24.9226 36.9198 24.9505 36.9006 25.023 36.9006V38.3907C25.2309 38.3907 25.4104 38.3291 25.5181 38.2868C25.6314 38.2423 25.7454 38.1854 25.8158 38.1511C25.9026 38.1088 25.9442 38.0901 25.9703 38.0811C26.0083 38.0679 25.9303 38.1051 25.7991 38.0819L26.0587 36.6146ZM26.0587 38.0819C26.0142 38.0898 25.9668 38.0876 25.9275 38.0791C25.9005 38.0732 25.8878 38.0657 25.932 38.0843C26.0087 38.1166 26.234 38.2233 26.5402 38.2233V36.7332C26.5755 36.7332 26.6127 36.7541 26.5103 36.711C26.4026 36.6657 26.1439 36.5536 25.7991 36.6146L26.0587 38.0819ZM42.6708 41.1991C42.631 42.5675 42.4515 43.8895 42.0001 45.1183L43.3987 45.6322C43.9244 44.2013 44.1177 42.7062 44.1602 41.2424L42.6708 41.1991ZM7.69763 41.2424C7.7402 42.7062 7.93345 44.2013 8.45914 45.6322L9.8578 45.1183C9.40632 43.8895 9.22686 42.5675 9.18707 41.1991L7.69763 41.2424ZM25.8467 5.40443C29.1863 5.77551 30.8001 6.34737 32.0829 6.74529C32.7364 6.948 33.3505 7.12144 34.0603 7.18414C34.7748 7.24724 35.5501 7.19575 36.5486 6.99607L36.2563 5.53494C35.3582 5.71457 34.7296 5.74738 34.1914 5.69985C33.6487 5.65192 33.1616 5.5198 32.5244 5.32212C31.2257 4.91927 29.4992 4.31104 26.0112 3.92348L25.8467 5.40443ZM9.70424 4.73781C6.95486 5.91613 5.2198 7.36285 4.45828 9.53861C3.71939 11.6497 3.95781 14.2985 4.71865 17.7223L6.17324 17.3991C5.41683 13.9952 5.27597 11.7129 5.86469 10.0309C6.43079 8.41346 7.73024 7.20497 10.2912 6.10739L9.70424 4.73781Z" fill="#827F7C"/>
<path d="M12.669 28.9461C17.6748 41.5425 13.4644 64.7369 18.2367 65.6099C19.991 65.9308 18.2367 30.6919 19.8275 28.9461C21.4183 27.2002 31.7582 27.2001 33.3491 28.9461C34.1444 29.819 30.1675 65.6099 32.5536 65.6099C34.1444 65.6099 36.5624 42.4159 39.7121 28.9461C40.5925 25.1811 42.8936 23.7084 43.689 19.3437C44.325 15.8536 42.4104 12.5885 39.7121 10.6142C34.9398 7.12242 31.1951 15.1823 25.3952 14.9789C20.191 14.7964 17.2285 7.85434 12.669 10.6142C9.49708 12.5342 8.04546 15.3714 7.89672 19.3437C7.7369 23.6116 11.1131 25.0307 12.669 28.9461Z" fill="#D4B1B0" stroke="#D4BD9B" stroke-width="1.56785"/>
</svg>
