<svg width="57" height="80" viewBox="0 0 57 80" fill="none" xmlns="http://www.w3.org/2000/svg">
<line x1="48.7419" y1="7.78873" x2="51.7929" y2="4.73781" stroke="#827F7C" stroke-width="1.47614" stroke-linecap="round"/>
<line x1="45.0516" y1="5.36203" x2="45.0516" y2="1.04738" stroke="#827F7C" stroke-width="1.47614" stroke-linecap="round"/>
<line x1="50.9562" y1="11.3806" x2="55.2708" y2="11.3806" stroke="#827F7C" stroke-width="1.47614" stroke-linecap="round"/>
<path d="M11.0568 10.4685C11.7762 10.0848 12.0483 9.1907 11.6647 8.47136C11.281 7.75202 10.3869 7.47989 9.66752 7.86354L11.0568 10.4685ZM3.74398 25.4036L2.38836 25.9878L2.41381 26.0468L2.44429 26.1034L3.74398 25.4036ZM11.1248 51.2361L9.72438 51.7029L9.72438 51.7029L11.1248 51.2361ZM18.5833 62.8894C19.3125 63.254 20.1992 62.9584 20.5638 62.2292C20.9284 61.5001 20.6328 60.6134 19.9036 60.2488L18.5833 62.8894ZM31.3863 9.94816C30.5954 9.75043 29.7939 10.2313 29.5962 11.0222C29.3985 11.8131 29.8793 12.6146 30.6702 12.8123L31.3863 9.94816ZM40.8063 10.6308C41.6152 10.5296 42.189 9.79188 42.0879 8.98292C41.9868 8.17397 41.249 7.60015 40.4401 7.70127L40.8063 10.6308ZM9.66752 7.86354C3.65661 11.0694 1.73857 15.5946 1.43016 19.3791C1.27939 21.2293 1.51405 22.8621 1.78276 24.0282C1.91767 24.6138 2.06285 25.0889 2.17692 25.4239C2.23402 25.5916 2.28355 25.7248 2.32042 25.8199C2.33886 25.8674 2.35416 25.9055 2.36569 25.9336C2.37145 25.9477 2.37627 25.9593 2.38008 25.9683C2.38198 25.9728 2.38363 25.9767 2.38501 25.98C2.3857 25.9816 2.38633 25.983 2.38689 25.9844C2.38717 25.985 2.38753 25.9859 2.38767 25.9862C2.38802 25.987 2.38836 25.9878 3.74398 25.4036C5.09961 24.8194 5.09991 24.8201 5.10019 24.8208C5.10026 24.8209 5.10053 24.8215 5.10068 24.8219C5.10096 24.8226 5.10119 24.8231 5.10135 24.8234C5.10166 24.8242 5.10172 24.8243 5.10152 24.8239C5.10113 24.8229 5.09973 24.8196 5.09741 24.8139C5.09276 24.8026 5.08441 24.7819 5.07294 24.7523C5.04999 24.6932 5.01466 24.5986 4.97163 24.4722C4.88542 24.2191 4.76921 23.8408 4.65966 23.3653C4.43941 22.4095 4.2528 21.0901 4.37269 19.6189C4.6056 16.7608 5.99666 13.1672 11.0568 10.4685L9.66752 7.86354ZM3.74398 25.4036C2.44429 26.1034 2.44429 26.1034 2.4443 26.1035C2.44433 26.1035 2.44437 26.1036 2.44443 26.1037C2.44456 26.1039 2.44476 26.1043 2.44504 26.1048C2.44561 26.1059 2.44648 26.1075 2.44766 26.1097C2.45002 26.1141 2.4536 26.1207 2.45836 26.1296C2.4679 26.1474 2.48218 26.174 2.50091 26.209C2.53837 26.2789 2.59364 26.3823 2.66438 26.5152C2.80586 26.781 3.00914 27.1647 3.25551 27.6345C3.74852 28.5746 4.41281 29.8574 5.09926 31.2302C5.78671 32.6051 6.49129 34.0602 7.06724 35.3476C7.65742 36.6668 8.06733 37.7118 8.21655 38.3088L11.0807 37.5928C10.8609 36.7136 10.3483 35.4522 9.76213 34.142C9.16177 32.8 8.43632 31.3028 7.73985 29.9099C7.0424 28.515 6.36889 27.2145 5.8701 26.2634C5.62057 25.7875 5.41443 25.3985 5.27048 25.1281C5.1985 24.9928 5.14205 24.8872 5.10347 24.8152C5.08418 24.7791 5.06936 24.7515 5.05929 24.7328C5.05426 24.7234 5.05042 24.7163 5.04781 24.7114C5.0465 24.709 5.0455 24.7071 5.04481 24.7058C5.04446 24.7052 5.0442 24.7047 5.04401 24.7043C5.04391 24.7042 5.04383 24.704 5.04378 24.7039C5.04372 24.7038 5.04368 24.7037 3.74398 25.4036ZM8.21655 38.3088C8.54527 39.6238 8.72409 42.2179 8.91402 44.9718C9.00592 46.3043 9.09981 47.6447 9.21817 48.7927C9.33218 49.8985 9.48165 50.9747 9.72438 51.7029L12.5252 50.7693C12.3988 50.3903 12.2715 49.6214 12.1549 48.4899C12.0426 47.4007 11.9519 46.1117 11.8593 44.7687C11.6802 42.1716 11.49 39.2301 11.0807 37.5928L8.21655 38.3088ZM9.72438 51.7029C10.1388 52.946 11.124 55.0977 12.5806 57.2341C14.0282 59.3573 16.0461 61.6208 18.5833 62.8894L19.9036 60.2488C18.0124 59.3032 16.34 57.5073 15.0199 55.571C13.7088 53.6481 12.8489 51.7404 12.5252 50.7693L9.72438 51.7029ZM30.6702 12.8123C32.6542 13.3083 33.9746 12.7515 35.3001 12.1835C36.5538 11.6462 38.0623 10.9738 40.8063 10.6308L40.4401 7.70127C37.2795 8.09634 35.4667 8.90006 34.1371 9.46989C32.8793 10.0089 32.3546 10.1902 31.3863 9.94816L30.6702 12.8123Z" fill="#80C8F0"/>
<path d="M26.0408 42.4012C25.6453 42.3023 25.2446 42.5427 25.1457 42.9382C25.0469 43.3336 25.2873 43.7344 25.6827 43.8332L26.0408 42.4012ZM31.3373 62.1696C31.669 62.4065 32.13 62.3297 32.3669 61.998C32.6038 61.6663 32.527 61.2053 32.1953 60.9684L31.3373 62.1696ZM25.6827 43.8332C26.804 44.1135 27.4512 44.9333 27.8385 46.3047C28.2352 47.7091 28.3063 49.526 28.3529 51.5299C28.3985 53.4887 28.4209 55.6122 28.769 57.4723C29.1169 59.3322 29.816 61.0829 31.3373 62.1696L32.1953 60.9684C31.1334 60.2098 30.5408 58.9161 30.2199 57.2009C29.8991 55.486 29.8754 53.5039 29.8287 51.4956C29.783 49.5324 29.7158 47.5205 29.2591 45.9035C28.793 44.2533 27.8718 42.8589 26.0408 42.4012L25.6827 43.8332Z" fill="#80C8F0"/>
<path d="M7.66367 37.3006L6.93358 37.4089L6.93358 37.4089L7.66367 37.3006ZM8.37752 46.1267L7.63979 46.1489L7.63979 46.1489L8.37752 46.1267ZM9.08695 50.0925L8.39731 50.3554L8.39731 50.3554L9.08695 50.0925ZM18.9368 61.1984L18.917 61.9362L18.917 61.9362L18.9368 61.1984ZM43.7377 37.3006L43.0076 37.1924L43.0076 37.1924L43.7377 37.3006ZM43.0239 46.1267L43.7616 46.1489L43.7616 46.1489L43.0239 46.1267ZM42.3144 50.0925L43.0041 50.3554L43.0041 50.3554L42.3144 50.0925ZM32.4646 61.1984L32.4844 61.9362L32.4844 61.9362L32.4646 61.1984ZM24.8032 41.9759C24.3956 41.9759 24.0651 42.3064 24.0651 42.714C24.0651 43.1216 24.3956 43.4521 24.8032 43.4521V41.9759ZM36.216 13.4839C36.6163 13.4068 36.8782 13.0198 36.8011 12.6195C36.7239 12.2192 36.3369 11.9573 35.9367 12.0344L36.216 13.4839ZM10.2001 12.6367C10.5768 12.4811 10.7561 12.0496 10.6006 11.6728C10.445 11.2961 10.0134 11.1168 9.63664 11.2724L10.2001 12.6367ZM4.68993 23.7072C4.78153 24.1044 5.17778 24.3521 5.57498 24.2605C5.97218 24.1689 6.21991 23.7727 6.12831 23.3755L4.68993 23.7072ZM25.7007 10.4923C23.768 10.4923 22.0341 10.0248 20.3605 9.41648C19.5194 9.11078 18.709 8.77557 17.8859 8.44505C17.0704 8.11757 16.2472 7.79678 15.4168 7.53839C13.7496 7.01963 12.0097 6.73799 10.1208 7.14849C8.23289 7.55874 6.28048 8.64152 4.14536 10.6989L5.16962 11.7618C7.168 9.83623 8.88549 8.92752 10.4342 8.59097C11.9818 8.25466 13.4453 8.47089 14.9782 8.94788C15.7479 9.18736 16.5241 9.4889 17.3359 9.81488C18.1401 10.1378 18.9851 10.4872 19.8562 10.8038C21.6068 11.4401 23.5245 11.9684 25.7007 11.9684V10.4923ZM4.14536 10.6989C-0.317029 14.9988 0.36824 20.6416 2.08112 25.5931C2.94192 28.0814 4.08824 30.4736 5.04576 32.5214C6.02714 34.6203 6.76518 36.2731 6.93358 37.4089L8.39376 37.1924C8.18638 35.7936 7.3274 33.916 6.38295 31.8962C5.41463 29.8252 4.30632 27.5103 3.47615 25.1105C1.80708 20.2856 1.36504 15.4279 5.16962 11.7618L4.14536 10.6989ZM6.93358 37.4089C7.4017 40.5664 7.57558 44.0213 7.63979 46.1489L9.11526 46.1044C9.05045 43.9567 8.87445 40.4347 8.39376 37.1924L6.93358 37.4089ZM8.39731 50.3554C9.09159 52.1763 10.3169 54.9872 12.0305 57.3732C13.7207 59.7266 16.0255 61.8585 18.917 61.9362L18.9566 60.4606C16.7923 60.4024 14.8575 58.7789 13.2295 56.5121C11.6248 54.2778 10.4531 51.6038 9.77659 49.8295L8.39731 50.3554ZM25.7007 11.9684C27.8769 11.9684 29.7946 11.4401 31.5452 10.8038C32.4163 10.4872 33.2613 10.1378 34.0655 9.81488C34.8773 9.4889 35.6535 9.18736 36.4232 8.94788C37.9561 8.47089 39.4196 8.25466 40.9672 8.59097C42.5159 8.92752 44.2334 9.83623 46.2318 11.7618L47.256 10.6989C45.1209 8.64152 43.1685 7.55874 41.2806 7.14849C39.3917 6.73799 37.6518 7.01963 35.9846 7.53839C35.1542 7.79678 34.331 8.11757 33.5155 8.44505C32.6924 8.77557 31.882 9.11078 31.0409 9.41648C29.3673 10.0248 27.6334 10.4923 25.7007 10.4923V11.9684ZM46.2318 11.7618C50.0364 15.4279 49.5943 20.2856 47.9252 25.1105C47.0951 27.5103 45.9868 29.8252 45.0184 31.8962C44.074 33.916 43.215 35.7936 43.0076 37.1924L44.4678 37.4089C44.6362 36.2731 45.3743 34.6203 46.3556 32.5214C47.3131 30.4736 48.4595 28.0814 49.3203 25.5931C51.0332 20.6416 51.7184 14.9988 47.256 10.6989L46.2318 11.7618ZM43.0076 37.1924C42.5269 40.4347 42.3509 43.9567 42.2861 46.1044L43.7616 46.1489C43.8258 44.0213 43.9997 40.5664 44.4678 37.4089L43.0076 37.1924ZM41.6248 49.8295C40.9483 51.6038 39.7766 54.2778 38.1719 56.5121C36.5439 58.7789 34.6091 60.4024 32.4448 60.4606L32.4844 61.9362C35.3759 61.8585 37.6807 59.7266 39.3709 57.3732C41.0845 54.9872 42.3098 52.1763 43.0041 50.3554L41.6248 49.8295ZM18.917 61.9362C20.0504 61.9667 20.9784 61.6718 21.6937 61.063C22.3952 60.466 22.8162 59.6315 23.0735 58.7206C23.5795 56.9299 23.5234 54.5624 23.4471 52.3076C23.3683 49.9836 23.266 47.7526 23.586 46.0201C23.7444 45.163 23.9957 44.4976 24.3523 44.0268C24.6926 43.5775 25.1523 43.2723 25.8247 43.1577L25.5767 41.7025C24.5334 41.8804 23.742 42.3877 23.1756 43.1355C22.6255 43.8618 22.3143 44.7782 22.1344 45.752C21.778 47.6814 21.8956 50.1092 21.9718 52.3576C22.0503 54.6752 22.084 56.7937 21.653 58.3193C21.4419 59.0666 21.1377 59.5979 20.737 59.9388C20.3503 60.268 19.7993 60.4832 18.9566 60.4606L18.917 61.9362ZM25.6199 43.1637C26.2711 43.2354 26.706 43.5035 27.0283 43.9145C27.3708 44.3512 27.6173 44.9915 27.7737 45.8403C28.0894 47.5539 27.9898 49.7978 27.9173 52.1503C27.8469 54.4337 27.8009 56.8384 28.3138 58.6602C28.5743 59.5853 28.9972 60.4333 29.6986 61.0412C30.4154 61.6625 31.3463 61.9668 32.4844 61.9362L32.4448 60.4606C31.6068 60.4831 31.0557 60.264 30.6654 59.9257C30.2597 59.5741 29.9505 59.0264 29.7347 58.2601C29.2952 56.6991 29.3205 54.538 29.3927 52.1958C29.4627 49.9227 29.577 47.4813 29.2254 45.5728C29.0481 44.6106 28.7406 43.7057 28.1899 43.0035C27.6189 42.2755 26.8212 41.8109 25.7814 41.6965L25.6199 43.1637ZM25.8247 41.7025C25.585 41.6617 25.3761 41.7209 25.266 41.7577C25.1449 41.7982 25.0274 41.8534 24.9515 41.8891C24.8598 41.9322 24.8082 41.9565 24.7627 41.9737C24.7121 41.9929 24.7365 41.9759 24.8032 41.9759V43.4521C25.0042 43.4521 25.1787 43.3946 25.2852 43.3543C25.3967 43.3121 25.509 43.2581 25.579 43.2252C25.6648 43.1849 25.7068 43.1668 25.7338 43.1577C25.7719 43.145 25.6998 43.1787 25.5767 43.1577L25.8247 41.7025ZM25.8247 43.1577C25.7842 43.1646 25.7408 43.1627 25.7047 43.1552C25.6802 43.15 25.6691 43.1435 25.7127 43.1612C25.7897 43.1925 26.0088 43.2923 26.3063 43.2923V41.8162C26.3353 41.8162 26.3681 41.8341 26.2677 41.7933C26.1605 41.7498 25.9101 41.6457 25.5767 41.7025L25.8247 43.1577ZM42.2861 46.1044C42.2468 47.407 42.0696 48.6629 41.6248 49.8295L43.0041 50.3554C43.5273 48.9832 43.7193 47.55 43.7616 46.1489L42.2861 46.1044ZM7.63979 46.1489C7.68207 47.55 7.8741 48.9832 8.39731 50.3554L9.77659 49.8295C9.33177 48.6629 9.15457 47.407 9.11526 46.1044L7.63979 46.1489ZM25.6221 11.9642C28.9331 12.3187 30.5335 12.8652 31.8045 13.2451C32.4518 13.4385 33.0581 13.6034 33.7584 13.663C34.463 13.723 35.2285 13.6742 36.216 13.4839L35.9367 12.0344C35.0453 12.2062 34.4199 12.2379 33.8836 12.1922C33.3431 12.1462 32.8586 12.0195 32.2272 11.8307C30.9407 11.4462 29.2322 10.8662 25.7793 10.4965L25.6221 11.9642ZM9.63664 11.2724C6.91915 12.3946 5.1931 13.7756 4.4336 15.8666C3.6963 17.8964 3.93606 20.4383 4.68993 23.7072L6.12831 23.3755C5.37912 20.1268 5.24314 17.9616 5.82105 16.3705C6.37676 14.8406 7.65686 13.687 10.2001 12.6367L9.63664 11.2724Z" fill="#827F7C"/>
<rect x="17.2725" y="35.208" width="18.4043" height="44.3352" fill="white"/>
<path d="M20.2508 47.7994C22.1853 45.7112 24.5321 44.7016 26.8195 44.7016C29.1052 44.7016 31.4004 45.7092 33.2395 47.787C33.3889 47.9558 33.5684 48.4005 33.6724 49.2509C33.7711 50.0584 33.7876 51.0948 33.7367 52.2953C33.6349 54.6926 33.2687 57.6486 32.8214 60.539C32.3748 63.425 31.8505 66.226 31.4375 68.3069C31.2311 69.347 31.0527 70.2062 30.9259 70.805C30.898 70.9369 30.8726 71.0562 30.85 71.1619H22.6501C22.627 71.0552 22.601 70.9347 22.5724 70.8013C22.4439 70.2012 22.263 69.3403 22.0539 68.2984C21.6355 66.2137 21.1047 63.4083 20.6538 60.5195C20.2022 57.626 19.834 54.6693 19.7354 52.2754C19.6861 51.0764 19.7056 50.0434 19.8085 49.241C19.9171 48.395 20.1013 47.9608 20.2508 47.7994Z" fill="#E4F5F9" stroke="#827F7C" stroke-width="1.47553"/>
<path d="M18.8057 51.0382C18.2606 51.3146 18.0428 51.9806 18.3192 52.5257C18.5957 53.0708 19.2617 53.2886 19.8068 53.0121L18.8057 51.0382ZM25.6072 50.8046C26.1997 50.6544 26.5581 50.0524 26.4079 49.4599C26.2577 48.8675 25.6556 48.509 25.0632 48.6592L25.6072 50.8046ZM29.3735 53.3229C28.8237 53.5899 28.5945 54.252 28.8615 54.8018C29.1285 55.3516 29.7906 55.5808 30.3404 55.3138L29.3735 53.3229ZM34.4478 53.3191C34.9976 53.0521 35.2268 52.3899 34.9598 51.8402C34.6928 51.2904 34.0307 51.0611 33.4809 51.3281L34.4478 53.3191ZM29.3564 60.211C28.8113 60.4874 28.5935 61.1534 28.87 61.6985C29.1464 62.2436 29.8124 62.4614 30.3575 62.1849L29.3564 60.211ZM33.372 60.6561C33.9171 60.3797 34.1349 59.7137 33.8584 59.1686C33.582 58.6235 32.916 58.4057 32.3709 58.6822L33.372 60.6561ZM19.5593 57.9178C19.0142 58.1942 18.7964 58.8602 19.0729 59.4053C19.3493 59.9504 20.0153 60.1682 20.5604 59.8917L19.5593 57.9178ZM25.6897 57.6599C26.2686 57.4641 26.5793 56.8361 26.3836 56.2571C26.1878 55.6781 25.5598 55.3674 24.9808 55.5632L25.6897 57.6599ZM21.0665 64.033C20.5214 64.3094 20.3037 64.9754 20.5801 65.5205C20.8566 66.0656 21.5225 66.2834 22.0676 66.0069L21.0665 64.033ZM25.6897 64.5395C26.2686 64.3437 26.5793 63.7157 26.3836 63.1367C26.1878 62.5577 25.5598 62.247 24.9808 62.4428L25.6897 64.5395ZM19.8068 53.0121C21.252 52.2791 22.7066 51.7252 23.8056 51.3536C24.3534 51.1684 24.8087 51.0299 25.1251 50.9382C25.2832 50.8924 25.4064 50.8583 25.4887 50.836C25.5299 50.8249 25.5609 50.8167 25.5809 50.8115C25.5908 50.8089 25.5981 50.807 25.6025 50.8058C25.6047 50.8053 25.6063 50.8049 25.607 50.8047C25.6074 50.8046 25.6076 50.8045 25.6077 50.8045C25.6077 50.8045 25.6077 50.8045 25.6076 50.8045C25.6075 50.8046 25.6075 50.8046 25.6074 50.8046C25.6073 50.8046 25.6072 50.8046 25.3352 49.7319C25.0632 48.6592 25.0631 48.6593 25.0629 48.6593C25.0629 48.6593 25.0627 48.6594 25.0626 48.6594C25.0623 48.6595 25.062 48.6595 25.0616 48.6596C25.0609 48.6598 25.0601 48.66 25.059 48.6603C25.0569 48.6609 25.054 48.6616 25.0504 48.6625C25.0432 48.6644 25.0332 48.667 25.0204 48.6703C24.9948 48.677 24.958 48.6867 24.9109 48.6995C24.8166 48.725 24.6807 48.7626 24.5091 48.8123C24.166 48.9118 23.6794 49.0599 23.0967 49.2569C21.9348 49.6497 20.3749 50.2423 18.8057 51.0382L19.8068 53.0121ZM30.3404 55.3138L34.4478 53.3191L33.4809 51.3281L29.3735 53.3229L30.3404 55.3138ZM30.3575 62.1849L33.372 60.6561L32.3709 58.6822L29.3564 60.211L30.3575 62.1849ZM20.5604 59.8917C22.0352 59.1438 23.3251 58.5831 24.244 58.2103C24.7032 58.024 25.0689 57.8849 25.3178 57.7931C25.4422 57.7472 25.5374 57.7132 25.6004 57.691C25.6318 57.6799 25.6553 57.6717 25.6703 57.6665C25.6778 57.664 25.6832 57.6621 25.6864 57.661C25.688 57.6604 25.6891 57.6601 25.6897 57.6599C25.6899 57.6598 25.6901 57.6597 25.6901 57.6598C25.6901 57.6598 25.69 57.6598 25.69 57.6598C25.6899 57.6598 25.6899 57.6598 25.6898 57.6598C25.6898 57.6599 25.6897 57.6599 25.3352 56.6115C24.9808 55.5632 24.9807 55.5632 24.9805 55.5633C24.9805 55.5633 24.9803 55.5633 24.9802 55.5634C24.98 55.5634 24.9798 55.5635 24.9795 55.5636C24.979 55.5638 24.9783 55.564 24.9775 55.5643C24.9758 55.5649 24.9736 55.5656 24.9708 55.5666C24.9653 55.5684 24.9577 55.5711 24.9479 55.5744C24.9283 55.5812 24.9002 55.591 24.864 55.6038C24.7915 55.6293 24.6865 55.6669 24.5519 55.7166C24.2827 55.8159 23.8948 55.9635 23.4119 56.1594C22.4467 56.551 21.099 57.1369 19.5593 57.9178L20.5604 59.8917ZM22.0676 66.0069C22.768 65.6517 23.6663 65.2861 24.4098 65.0032C24.7773 64.8634 25.0991 64.7469 25.3286 64.6654C25.4433 64.6247 25.5346 64.5929 25.5968 64.5714C25.6279 64.5606 25.6516 64.5525 25.6674 64.5471C25.6752 64.5444 25.6811 64.5424 25.6848 64.5411C25.6867 64.5405 25.688 64.54 25.6889 64.5398C25.6893 64.5396 25.6895 64.5395 25.6897 64.5395C25.6897 64.5395 25.6898 64.5395 25.6898 64.5395C25.6898 64.5395 25.6897 64.5395 25.6897 64.5395C25.6897 64.5395 25.6897 64.5395 25.3352 63.4911C24.9808 62.4428 24.9807 62.4428 24.9806 62.4428C24.9806 62.4428 24.9805 62.4429 24.9805 62.4429C24.9803 62.4429 24.9801 62.443 24.9799 62.4431C24.9795 62.4432 24.979 62.4434 24.9783 62.4436C24.9769 62.4441 24.975 62.4447 24.9725 62.4456C24.9676 62.4472 24.9606 62.4496 24.9516 62.4527C24.9334 62.4589 24.9072 62.4679 24.8735 62.4796C24.8061 62.5029 24.709 62.5367 24.5882 62.5796C24.3466 62.6654 24.009 62.7877 23.6229 62.9345C22.8592 63.225 21.8734 63.6238 21.0665 64.033L22.0676 66.0069Z" fill="#827F7C"/>
</svg>
