<svg width="58" height="66" viewBox="0 0 58 66" fill="none" xmlns="http://www.w3.org/2000/svg">
<line x1="50.199" y1="8.32001" x2="53.3441" y2="5.17498" stroke="#827F7C" stroke-width="1.52168" stroke-linecap="round"/>
<line x1="46.3948" y1="5.81826" x2="46.3948" y2="1.37052" stroke="#827F7C" stroke-width="1.52168" stroke-linecap="round"/>
<line x1="52.4816" y1="12.0224" x2="56.9293" y2="12.0224" stroke="#827F7C" stroke-width="1.52168" stroke-linecap="round"/>
<path d="M11.3515 11.0824C12.093 10.6869 12.3735 9.76519 11.978 9.02366C11.5825 8.28213 10.6608 8.00161 9.91929 8.39709L11.3515 11.0824ZM3.81303 26.4782L2.41559 27.0804L2.44182 27.1413L2.47325 27.1996L3.81303 26.4782ZM9.89982 39.4125L8.42356 39.7815L9.89982 39.4125ZM11.4215 53.1076L9.97791 53.5888H9.97791L11.4215 53.1076ZM19.1101 65.1203C19.8618 65.4962 20.7758 65.1915 21.1517 64.4398C21.5275 63.6881 21.2228 62.7741 20.4712 62.3983L19.1101 65.1203ZM32.308 10.546C31.4927 10.3422 30.6665 10.8379 30.4627 11.6532C30.2589 12.4685 30.7546 13.2947 31.5699 13.4985L32.308 10.546ZM42.0186 11.2497C42.8525 11.1454 43.444 10.3849 43.3398 9.55101C43.2355 8.7171 42.475 8.12558 41.6411 8.22982L42.0186 11.2497ZM9.91929 8.39709C3.72296 11.7018 1.74576 16.3666 1.42783 20.2679C1.27241 22.1751 1.51431 23.8583 1.79131 25.0604C1.93038 25.664 2.08004 26.1538 2.19763 26.4991C2.25649 26.672 2.30755 26.8093 2.34555 26.9073C2.36456 26.9563 2.38034 26.9956 2.39222 27.0246C2.39816 27.0391 2.40313 27.051 2.40705 27.0603C2.40901 27.065 2.41071 27.069 2.41214 27.0723C2.41285 27.074 2.4135 27.0755 2.41407 27.0769C2.41436 27.0775 2.41474 27.0784 2.41488 27.0788C2.41524 27.0796 2.41559 27.0804 3.81303 26.4782C5.21047 25.876 5.21078 25.8767 5.21107 25.8774C5.21115 25.8776 5.21142 25.8782 5.21157 25.8785C5.21187 25.8792 5.2121 25.8798 5.21226 25.8802C5.21259 25.8809 5.21264 25.8811 5.21244 25.8806C5.21204 25.8796 5.2106 25.8762 5.20821 25.8703C5.20341 25.8587 5.1948 25.8373 5.18298 25.8069C5.15932 25.7458 5.1229 25.6484 5.07854 25.5181C4.98968 25.2572 4.86989 24.8672 4.75695 24.3771C4.52991 23.3918 4.33754 22.0316 4.46113 20.5151C4.70123 17.5688 6.1352 13.8644 11.3515 11.0824L9.91929 8.39709ZM3.81303 26.4782C2.47325 27.1996 2.47324 27.1996 2.47326 27.1997C2.47329 27.1997 2.47333 27.1998 2.47339 27.1999C2.47352 27.2002 2.47373 27.2005 2.47402 27.2011C2.4746 27.2022 2.4755 27.2038 2.47672 27.2061C2.47915 27.2106 2.48284 27.2175 2.48775 27.2266C2.49758 27.2449 2.5123 27.2724 2.53161 27.3084C2.57023 27.3805 2.6272 27.4871 2.70012 27.6241C2.84597 27.8981 3.05552 28.2936 3.30949 28.7779C3.81771 29.747 4.50248 31.0694 5.21011 32.4846C5.91876 33.9019 6.64509 35.4019 7.2388 36.729C7.84718 38.0889 8.26974 39.1661 8.42356 39.7815L11.3761 39.0434C11.1495 38.1371 10.621 36.8367 10.0168 35.4862C9.39794 34.1028 8.65011 32.5594 7.93216 31.1235C7.21319 29.6856 6.51891 28.345 6.00473 27.3645C5.7475 26.874 5.53501 26.473 5.38662 26.1942C5.31241 26.0548 5.25422 25.9459 5.21445 25.8716C5.19457 25.8345 5.17929 25.806 5.16891 25.7867C5.16373 25.777 5.15977 25.7697 5.15707 25.7647C5.15572 25.7622 5.15469 25.7602 5.15398 25.7589C5.15363 25.7583 5.15335 25.7577 5.15316 25.7574C5.15306 25.7572 5.15297 25.757 5.15292 25.757C5.15286 25.7568 5.15282 25.7568 3.81303 26.4782ZM8.42356 39.7815C8.76242 41.137 8.94676 43.8112 9.14255 46.65C9.23728 48.0236 9.33406 49.4053 9.45608 50.5888C9.5736 51.7287 9.72769 52.8381 9.97791 53.5888L12.8651 52.6263C12.7349 52.2357 12.6036 51.443 12.4834 50.2767C12.3676 49.1538 12.2742 47.8251 12.1787 46.4406C11.9941 43.7634 11.798 40.7312 11.3761 39.0434L8.42356 39.7815ZM9.97791 53.5888C10.4051 54.8702 11.4207 57.0883 12.9223 59.2906C14.4145 61.4793 16.4947 63.8126 19.1101 65.1203L20.4712 62.3983C18.5216 61.4235 16.7976 59.5722 15.4368 57.5762C14.0852 55.5939 13.1988 53.6274 12.8651 52.6263L9.97791 53.5888ZM31.5699 13.4985C33.6151 14.0098 34.9762 13.4358 36.3425 12.8503C37.6349 12.2964 39.1899 11.6033 42.0186 11.2497L41.6411 8.22982C38.383 8.63708 36.5143 9.46559 35.1437 10.053C33.8471 10.6087 33.3062 10.7956 32.308 10.546L31.5699 13.4985Z" fill="#80C8F0"/>
<path d="M26.7976 44.0002C26.3899 43.8982 25.9768 44.1461 25.8749 44.5538C25.773 44.9614 26.0209 45.3745 26.4285 45.4764L26.7976 44.0002ZM32.2575 64.3784C32.5994 64.6226 33.0746 64.5434 33.3189 64.2015C33.5631 63.8595 33.4839 63.3844 33.142 63.1401L32.2575 64.3784ZM26.4285 45.4764C27.5844 45.7654 28.2515 46.6104 28.6508 48.0241C29.0597 49.4719 29.133 51.3448 29.1811 53.4105C29.228 55.4298 29.2512 57.6187 29.6099 59.5362C29.9686 61.4534 30.6893 63.2582 32.2575 64.3784L33.142 63.1401C32.0473 62.3582 31.4365 61.0245 31.1057 59.2564C30.7749 57.4886 30.7505 55.4454 30.7023 53.3751C30.6553 51.3514 30.586 49.2774 30.1152 47.6105C29.6347 45.9095 28.685 44.472 26.7976 44.0002L26.4285 45.4764Z" fill="#80C8F0"/>
<path d="M7.57532 38.5072L6.82213 38.6148L7.57532 38.5072ZM8.27894 47.5354L7.51842 47.5575L8.27894 47.5354ZM8.97819 51.592L8.26402 51.8544L8.97819 51.592ZM18.6867 62.9523L18.6655 63.7128H18.6655L18.6867 62.9523ZM43.1319 38.5072L42.3787 38.3996L43.1319 38.5072ZM42.4282 47.5354L43.1888 47.5575V47.5575L42.4282 47.5354ZM41.729 51.592L42.4431 51.8544L41.729 51.592ZM32.0204 62.9523L32.0416 63.7128L32.0204 62.9523ZM24.469 43.2837C24.0488 43.2837 23.7081 43.6243 23.7081 44.0445C23.7081 44.4647 24.0488 44.8053 24.469 44.8053V43.2837ZM35.7296 14.1497C36.1416 14.0672 36.4089 13.6664 36.3265 13.2544C36.244 12.8423 35.8432 12.5751 35.4312 12.6575L35.7296 14.1497ZM10.0974 13.2799C10.4836 13.1143 10.6625 12.6671 10.497 12.2808C10.3315 11.8946 9.88418 11.7157 9.49795 11.8812L10.0974 13.2799ZM4.61039 24.5978C4.70155 25.008 5.10797 25.2666 5.51816 25.1754C5.92836 25.0843 6.18699 24.6779 6.09584 24.2677L4.61039 24.5978ZM25.3536 11.0789C23.4588 11.0789 21.7572 10.6034 20.11 9.98203C19.2821 9.66972 18.4845 9.32733 17.6725 8.98897C16.8686 8.65396 16.0556 8.32511 15.2349 8.0601C13.5867 7.5279 11.8603 7.23688 9.98426 7.65997C8.11054 8.08254 6.17988 9.19617 4.07428 11.3018L5.15027 12.3778C7.11886 10.4092 8.80545 9.48571 10.319 9.14436C11.8303 8.80354 13.2611 9.0218 14.7673 9.50815C15.5237 9.75241 16.2871 10.0602 17.0872 10.3936C17.8792 10.7236 18.7132 11.0815 19.5729 11.4058C21.3008 12.0576 23.1983 12.6006 25.3536 12.6006V11.0789ZM4.07428 11.3018C-0.324572 15.7006 0.351665 21.4645 2.03857 26.5252C2.88679 29.0698 4.01641 31.5163 4.96029 33.6112C5.92708 35.757 6.65571 37.4498 6.82213 38.6148L8.32851 38.3996C8.12455 36.9718 7.27906 35.0534 6.34765 32.9861C5.39332 30.868 4.30066 28.4995 3.48216 26.044C1.83564 21.1045 1.40074 16.1273 5.15027 12.3778L4.07428 11.3018ZM6.82213 38.6148C7.2837 41.8458 7.45512 45.3808 7.51842 47.5575L9.03945 47.5132C8.97558 45.3166 8.80214 41.7149 8.32851 38.3996L6.82213 38.6148ZM8.26402 51.8544C8.94807 53.7162 10.1556 56.5912 11.8448 59.032C13.5066 61.4334 15.7869 63.6325 18.6655 63.7128L18.7079 62.1917C16.6033 62.133 14.7048 60.4907 13.096 58.1661C11.5145 55.8809 10.3594 53.1452 9.69235 51.3296L8.26402 51.8544ZM25.3536 12.6006C27.5088 12.6006 29.4063 12.0576 31.1343 11.4058C31.9939 11.0815 32.8279 10.7236 33.62 10.3936C34.4201 10.0602 35.1835 9.75241 35.9399 9.50815C37.446 9.0218 38.8769 8.80354 40.3881 9.14436C41.9017 9.48571 43.5883 10.4092 45.5569 12.3778L46.6329 11.3018C44.5273 9.19617 42.5966 8.08254 40.7229 7.65997C38.8469 7.23688 37.1204 7.5279 35.4723 8.0601C34.6516 8.32511 33.8386 8.65396 33.0347 8.98897C32.2227 9.32733 31.4251 9.66972 30.5972 9.98203C28.9499 10.6034 27.2483 11.0789 25.3536 11.0789V12.6006ZM45.5569 12.3778C49.3064 16.1273 48.8715 21.1045 47.225 26.044C46.4065 28.4995 45.3138 30.868 44.3595 32.9861C43.4281 35.0534 42.5826 36.9718 42.3787 38.3996L43.885 38.6148C44.0515 37.4498 44.7801 35.757 45.7469 33.6112C46.6908 31.5163 47.8204 29.0698 48.6686 26.5252C50.3555 21.4645 51.0317 15.7006 46.6329 11.3018L45.5569 12.3778ZM42.3787 38.3996C41.905 41.7149 41.7316 45.3166 41.6677 47.5132L43.1888 47.5575C43.252 45.3808 43.4235 41.8458 43.885 38.6148L42.3787 38.3996ZM41.0148 51.3296C40.3478 53.1452 39.1926 55.8809 37.6112 58.1661C36.0024 60.4907 34.1039 62.133 31.9992 62.1917L32.0416 63.7128C34.9203 63.6325 37.2005 61.4334 38.8624 59.032C40.5516 56.5912 41.7591 53.7162 42.4431 51.8544L41.0148 51.3296ZM18.6655 63.7128C19.7967 63.7444 20.7241 63.4381 21.4363 62.8091C22.1313 62.1952 22.5454 61.3406 22.7981 60.4124C23.2959 58.584 23.241 56.1658 23.1656 53.8586C23.0881 51.4824 22.987 49.1974 23.3029 47.4226C23.4595 46.5433 23.7079 45.8614 24.0592 45.3801C24.3935 44.922 24.8394 44.6177 25.4861 44.5033L25.221 43.0049C24.1767 43.1897 23.3895 43.7165 22.8301 44.483C22.2876 45.2262 21.9817 46.1623 21.8048 47.1559C21.4539 49.1268 21.5697 51.6073 21.6448 53.9082C21.7221 56.2782 21.7557 58.4487 21.3299 60.0126C21.1208 60.7806 20.8202 61.323 20.4289 61.6686C20.0549 61.9989 19.5245 62.2145 18.7079 62.1917L18.6655 63.7128ZM25.2672 44.51C25.8914 44.5813 26.3116 44.8471 26.6276 45.2653C26.9648 45.7115 27.2085 46.3678 27.3631 47.2386C27.6748 48.9942 27.5764 51.2924 27.505 53.6976C27.4356 56.034 27.3905 58.4903 27.8952 60.3505C28.151 61.2934 28.567 62.1617 29.2618 62.7866C29.9751 63.4283 30.9053 63.7445 32.0416 63.7128L31.9992 62.1917C31.1878 62.2144 30.6572 61.9952 30.2794 61.6553C29.883 61.2987 29.5773 60.7394 29.3638 59.9521C28.9297 58.352 28.9549 56.1379 29.026 53.7428C29.0951 51.4165 29.2074 48.9221 28.8614 46.9726C28.6871 45.9909 28.3848 45.0666 27.8416 44.3478C27.2772 43.601 26.4824 43.1173 25.4399 42.9982L25.2672 44.51ZM25.4861 43.0049C25.2347 42.9604 25.017 43.0252 24.9065 43.0635C24.7837 43.106 24.6654 43.1639 24.5911 43.2001C24.4999 43.2446 24.451 43.2685 24.4084 43.2852C24.36 43.3042 24.392 43.2837 24.469 43.2837V44.8053C24.6783 44.8053 24.8582 44.7434 24.9647 44.7016C25.0768 44.6575 25.1895 44.6013 25.2577 44.568C25.3427 44.5266 25.3816 44.5093 25.4049 44.5012C25.4404 44.4889 25.3576 44.5275 25.221 44.5033L25.4861 43.0049ZM25.4861 44.5033C25.438 44.5118 25.3874 44.5095 25.3451 44.5003C25.3154 44.4939 25.3005 44.4854 25.3437 44.5036C25.418 44.5349 25.6438 44.6419 25.9505 44.6419V43.1202C25.9926 43.1202 26.0348 43.1435 25.9342 43.1011C25.8283 43.0566 25.5678 42.9436 25.221 43.0049L25.4861 44.5033ZM41.6677 47.5132C41.6289 48.8473 41.454 50.1343 41.0148 51.3296L42.4431 51.8544C42.9581 50.4528 43.1471 48.9889 43.1888 47.5575L41.6677 47.5132ZM7.51842 47.5575C7.56004 48.9889 7.74905 50.4527 8.26402 51.8544L9.69235 51.3296C9.25317 50.1343 9.07825 48.8473 9.03945 47.5132L7.51842 47.5575ZM25.2696 12.596C28.5272 12.9579 30.1005 13.5155 31.3527 13.9039C31.9912 14.102 32.5936 14.2723 33.2905 14.3338C33.992 14.3958 34.7525 14.3451 35.7296 14.1497L35.4312 12.6575C34.5564 12.8325 33.9459 12.8641 33.4244 12.818C32.8982 12.7716 32.4254 12.6435 31.8035 12.4506C30.5351 12.0571 28.8468 11.4624 25.4376 11.0836L25.2696 12.596ZM9.49795 11.8812C6.80913 13.0336 5.10519 14.4516 4.35724 16.5886C3.63239 18.6595 3.86738 21.2542 4.61039 24.5978L6.09584 24.2677C5.35735 20.9444 5.22199 18.7241 5.79348 17.0913C6.34187 15.5245 7.60096 14.3498 10.0974 13.2799L9.49795 11.8812Z" fill="#827F7C"/>
<line x1="10.3945" y1="30.6063" x2="41.5064" y2="30.6063" stroke="#827F7C" stroke-width="1.52168"/>
<rect x="19.728" y="23.0337" width="12.4448" height="13.3337" rx="1.52168" fill="#827F7C"/>
</svg>
