<svg width="50" height="23" viewBox="0 0 50 23" fill="none" xmlns="http://www.w3.org/2000/svg">
<path d="M1.89894 18.5307C2.69542 19.0617 4.56397 18.9296 5.61596 18.2652M1.89894 18.5307C1.89894 18.5307 1.89881 14.5481 2.16438 12.4241C2.23939 11.8242 2.90538 11.4809 3.49191 11.6275C4.28843 11.8267 5.61596 13.2133 5.61596 13.7516M1.89894 18.5307C1.07016 13.0608 1.52691 7.30725 3.49189 5.52089C6.41245 2.86583 15.4375 1.00732 25.7945 1.00732M5.61596 18.2652C5.61596 18.2652 5.61596 15.3446 5.61596 13.7516M5.61596 18.2652C5.70446 18.8847 5.84254 19.8388 6.41248 20.1237C6.94349 20.3892 8.53652 20.9203 10.3951 19.8582C10.8875 19.5769 10.6606 16.1362 10.6606 14.8136M5.61596 13.7516C5.61596 13.7516 5.74077 10.8492 7.209 10.5655C8.86623 10.2453 10.6606 13.1257 10.6606 14.8136M10.6606 14.8136C10.6606 14.8136 11.6726 11.2097 13.5811 11.0965C15.2177 10.9995 17.5637 13.1183 17.5637 14.5481M10.6606 14.8136C10.6606 14.8136 10.6606 18.5307 10.6606 19.0617C10.6606 21.7168 17.5637 21.4513 17.5637 19.8582M17.5637 14.5481C17.5637 17.4687 17.5637 19.3272 17.5637 19.8582M17.5637 14.5481C17.5637 14.5481 18.6258 10.481 21.2808 10.5655C23.9359 10.6501 25.2634 12.4241 25.2634 14.0171C25.2634 16.6722 25.2634 18.5307 25.2634 20.6548C25.2634 22.2478 17.5637 22.7788 17.5637 19.8582M48.628 18.5373C47.8315 19.0683 45.963 18.9362 44.911 18.2717M48.628 18.5373C48.628 18.5373 48.6281 14.5546 48.3626 12.4306C48.2876 11.8307 47.6216 11.4874 47.035 11.6341C46.2385 11.8332 44.911 13.2198 44.911 13.7581M48.628 18.5373C49.4568 13.0674 49 7.31378 47.0351 5.52743C44.1145 2.87237 35.0895 1.01385 24.7324 1.01386M44.911 18.2717C44.911 18.2717 44.911 15.3512 44.911 13.7581M44.911 18.2717C44.8225 18.8912 44.6844 19.8453 44.1145 20.1303C43.5835 20.3958 41.9904 20.9268 40.1319 19.8648C39.6395 19.5834 39.8664 16.1427 39.8664 14.8202M44.911 13.7581C44.911 13.7581 44.7862 10.8558 43.3179 10.5721C41.6607 10.2518 39.8664 13.1323 39.8664 14.8202M39.8664 14.8202C39.8664 14.8202 38.8543 11.2162 36.9458 11.1031C35.3093 11.006 32.9632 13.1249 32.9632 14.5546M39.8664 14.8202C39.8664 14.8202 39.8664 18.5372 39.8664 19.0683C39.8664 21.7233 32.9632 21.4578 32.9632 19.8648M32.9632 14.5546C32.9632 17.4752 32.9632 19.3338 32.9632 19.8648M32.9632 14.5546C32.9632 14.5546 31.9012 10.4875 29.2461 10.5721C26.5911 10.6566 25.2635 12.4306 25.2635 14.0236C25.2635 16.6787 25.2635 18.5373 25.2635 20.6613C25.2635 22.2543 32.9632 22.7853 32.9632 19.8648" stroke="#827F7C" stroke-width="1.28111"/>
</svg>
