<svg width="50" height="48" viewBox="0 0 50 48" fill="none" xmlns="http://www.w3.org/2000/svg">
<path d="M44.8651 24.1849C44.8894 24.5204 44.9058 24.858 44.9139 25.1976L44.4097 25.2097C44.4136 25.3747 44.4156 25.5402 44.4156 25.7061C44.4156 25.8721 44.4136 26.0376 44.4097 26.2026L44.9139 26.2147C44.9058 26.5542 44.8894 26.8918 44.8651 27.2273L44.3621 27.1909C44.3382 27.5213 44.3063 27.8496 44.2667 28.1756L44.7674 28.2364C44.7265 28.5732 44.6776 28.9077 44.6207 29.2395L44.1236 29.1544C44.0677 29.4805 44.0041 29.8041 43.9328 30.125L44.4252 30.2344C44.3517 30.5653 44.2704 30.8934 44.1813 31.2185L43.6949 31.0852C43.6075 31.4041 43.5126 31.72 43.4103 32.0327L43.8896 32.1895C43.7843 32.5115 43.6714 32.8301 43.551 33.1453L43.0798 32.9653C42.9619 33.274 42.8367 33.5793 42.7044 33.881L43.1663 34.0835C43.0304 34.3935 42.8872 34.6998 42.7368 35.0022L42.2852 34.7776C42.1381 35.0733 41.9841 35.3652 41.8233 35.6532L42.2636 35.8991C42.0987 36.1944 41.9268 36.4856 41.7482 36.7724L41.3201 36.5058C41.1456 36.7861 40.9644 37.0621 40.7769 37.3337L41.192 37.6203C41 37.8985 40.8014 38.1721 40.5965 38.441L40.1953 38.1353C39.9953 38.3979 39.789 38.6558 39.5768 38.9089L39.9633 39.233C39.7462 39.4919 39.523 39.7459 39.2939 39.9947L38.9228 39.6531C38.6993 39.8959 38.47 40.1337 38.2351 40.3663L38.5901 40.7247C38.3501 40.9623 38.1045 41.1947 37.8535 41.4215L37.5153 41.0473C37.2705 41.2685 37.0203 41.4844 36.765 41.6947L37.0858 42.084C36.8252 42.2987 36.5595 42.5077 36.2887 42.7108L35.986 42.3074C35.7221 42.5054 35.4533 42.6977 35.1799 42.8842L35.4641 43.3009C35.1852 43.491 34.9017 43.6751 34.6136 43.8531L34.3486 43.424C34.0679 43.5973 33.7829 43.7646 33.4937 43.9258L33.7391 44.3664C33.4444 44.5306 33.1455 44.6885 32.8425 44.8399L32.617 44.3887C32.322 44.5361 32.0231 44.6772 31.7204 44.8119L31.9254 45.2727C31.6173 45.4098 31.3054 45.5403 30.9899 45.6641L30.8057 45.1945C30.4988 45.3149 30.1884 45.4288 29.8747 45.5359L30.0378 46.0132C29.7188 46.1222 29.3965 46.2244 29.071 46.3196L28.9293 45.8355C28.613 45.9281 28.2936 46.0139 27.9714 46.0929L28.0914 46.5828C27.7642 46.6629 27.4341 46.7362 27.1013 46.8022L27.003 46.3075C26.6801 46.3716 26.3545 46.4289 26.0265 46.4791L26.1029 46.9777C25.7702 47.0287 25.4351 47.0725 25.0978 47.1092L25.0433 46.6077C24.7161 46.6433 24.3867 46.6719 24.0553 46.6933L24.0878 47.1966C23.7522 47.2184 23.4145 47.233 23.075 47.2403L23.0642 46.736C22.8987 46.7396 22.7327 46.7414 22.5664 46.7414C22.4 46.7414 22.2341 46.7396 22.0686 46.736L22.0577 47.2403C21.7182 47.233 21.3805 47.2184 21.0449 47.1967L21.0775 46.6933C20.746 46.6719 20.4166 46.6433 20.0894 46.6077L20.035 47.1092C19.6976 47.0725 19.3625 47.0287 19.0299 46.9777L19.1062 46.4791C18.7782 46.4289 18.4527 46.3716 18.1297 46.3075L18.0315 46.8022C17.6987 46.7362 17.3686 46.663 17.0413 46.5828L17.1613 46.0929C16.8391 46.0139 16.5197 45.9281 16.2034 45.8356L16.0618 46.3196C15.7363 46.2244 15.414 46.1222 15.095 46.0132L15.258 45.5359C14.9443 45.4288 14.6339 45.3149 14.327 45.1945L14.1429 45.6641C13.8274 45.5403 13.5154 45.4098 13.2073 45.2727L13.4123 44.8119C13.1097 44.6772 12.8107 44.5361 12.5157 44.3887L12.2903 44.8399C11.9873 44.6885 11.6883 44.5306 11.3936 44.3664L11.6391 43.9258C11.3499 43.7647 11.0648 43.5973 10.7842 43.424L10.5191 43.8531C10.231 43.6752 9.94749 43.491 9.66865 43.3009L9.9528 42.8842C9.6794 42.6977 9.41064 42.5054 9.14673 42.3074L8.84401 42.7108C8.57328 42.5077 8.30753 42.2987 8.04697 42.084L8.3677 41.6947C8.11243 41.4844 7.86227 41.2685 7.61742 41.0473L7.27927 41.4215C7.02823 41.1947 6.78262 40.9623 6.54266 40.7247L6.8976 40.3663C6.66275 40.1337 6.43345 39.8959 6.2099 39.6531L5.83883 39.9947C5.60975 39.7459 5.38656 39.4919 5.16947 39.233L5.55597 38.9089C5.34373 38.6558 5.13748 38.3979 4.93741 38.1353L4.53623 38.441C4.33133 38.1721 4.13276 37.8985 3.94072 37.6203L4.3558 37.3337C4.1683 37.0621 3.98718 36.7861 3.81266 36.5058L3.3845 36.7724C3.2059 36.4856 3.03402 36.1944 2.86909 35.8991L3.30945 35.6532C3.14865 35.3652 2.99462 35.0733 2.84757 34.7776L2.39594 35.0022C2.24558 34.6998 2.10233 34.3935 1.96639 34.0835L2.42831 33.881C2.296 33.5793 2.17081 33.274 2.05292 32.9653L1.58174 33.1453C1.46136 32.8301 1.34841 32.5115 1.24309 32.1896L1.72247 32.0327C1.62016 31.72 1.52523 31.4041 1.43788 31.0852L0.951422 31.2185C0.862367 30.8934 0.781002 30.5653 0.707525 30.2344L1.19992 30.125C1.12867 29.8042 1.06502 29.4806 1.00916 29.1544L0.512019 29.2396C0.45518 28.9077 0.406214 28.5732 0.365312 28.2364L0.866017 28.1756C0.82643 27.8496 0.794582 27.5213 0.770657 27.1909L0.267591 27.2273C0.243299 26.8919 0.226981 26.5543 0.218816 26.2147L0.723054 26.2026C0.719086 26.0376 0.717091 25.8721 0.717091 25.7061C0.717091 25.5402 0.719086 25.3747 0.723053 25.2097L0.218816 25.1976C0.22698 24.858 0.243298 24.5204 0.26759 24.1849L0.770656 24.2214C0.794581 23.8909 0.826428 23.5627 0.866015 23.2367L0.36531 23.1759C0.406212 22.839 0.455178 22.5046 0.512017 22.1727L1.00916 22.2579C1.06502 21.9317 1.12867 21.6081 1.19991 21.2872L0.707523 21.1779C0.780999 20.847 0.862365 20.5189 0.951419 20.1938L1.43788 20.327C1.52523 20.0082 1.62015 19.6923 1.72247 19.3796L1.24309 19.2227C1.34841 18.9008 1.46136 18.5822 1.58173 18.267L2.05292 18.4469C2.17081 18.1383 2.296 17.833 2.4283 17.5313L1.96638 17.3287C2.10232 17.0188 2.24557 16.7125 2.39594 16.4101L2.84756 16.6347C2.99462 16.3389 3.14865 16.047 3.30945 15.7591L2.86909 15.5132C3.03402 15.2179 3.20589 14.9267 3.3845 14.6399L3.81266 14.9065C3.98718 14.6262 4.16829 14.3502 4.3558 14.0785L3.94071 13.792C4.13275 13.5138 4.33133 13.2401 4.53623 12.9712L4.93741 13.2769C5.13748 13.0144 5.34373 12.7564 5.55597 12.5033L5.16947 12.1793C5.38656 11.9203 5.60975 11.6664 5.83883 11.4176L6.2099 11.7592C6.43344 11.5164 6.66274 11.2786 6.89759 11.0459L6.54265 10.6876C6.78262 10.4499 7.02822 10.2176 7.27927 9.99073L7.61742 10.365C7.86227 10.1437 8.11243 9.92786 8.36769 9.71755L8.04696 9.32827C8.30753 9.11359 8.57328 8.90458 8.84401 8.70143L9.14673 9.10487C9.41063 8.90685 9.67939 8.71453 9.9528 8.5281L9.66865 8.11138C9.94748 7.92125 10.231 7.73711 10.5191 7.55918L10.7842 7.9883C11.0648 7.81495 11.3498 7.64761 11.6391 7.48647L11.3936 7.04586C11.6883 6.88167 11.9873 6.72377 12.2903 6.57236L12.5157 7.02355C12.8107 6.87615 13.1097 6.73504 13.4123 6.60039L13.2073 6.13955C13.5154 6.00248 13.8273 5.87198 14.1428 5.74821L14.327 6.21776C14.6339 6.09737 14.9443 5.9835 15.258 5.87634L15.095 5.39904C15.414 5.29006 15.7363 5.18786 16.0618 5.09263L16.2034 5.57671C16.5197 5.48415 16.8391 5.39832 17.1613 5.31937L17.0413 4.82948C17.3685 4.74931 17.6987 4.6761 18.0315 4.61002L18.1297 5.10474C18.4526 5.04062 18.7782 4.98336 19.1062 4.93312L19.0299 4.43455C19.3625 4.38361 19.6976 4.33973 20.035 4.30309L20.0894 4.80453C20.4166 4.76899 20.746 4.74041 21.0775 4.71894L21.0449 4.21561C21.3805 4.19387 21.7182 4.17928 22.0577 4.17197L22.0686 4.67624C22.234 4.67268 22.4 4.67089 22.5664 4.67089C22.7327 4.67089 22.8987 4.67268 23.0642 4.67624L23.075 4.17197C23.4145 4.17927 23.7522 4.19387 24.0878 4.21561L24.0552 4.71894C24.3867 4.74041 24.7161 4.76899 25.0433 4.80452L25.0977 4.30309C25.4351 4.33973 25.7702 4.38361 26.1029 4.43455L26.0265 4.93312C26.3545 4.98336 26.6801 5.04062 27.003 5.10474L27.1012 4.61002C27.4341 4.6761 27.7642 4.74931 28.0914 4.82947L27.9714 5.31937C28.2936 5.39831 28.613 5.48415 28.9293 5.57671L29.071 5.09262C29.3964 5.18786 29.7188 5.29006 30.0378 5.39903L29.8747 5.87633C30.1884 5.9835 30.4988 6.09736 30.8057 6.21776L30.9899 5.74821C31.3054 5.87197 31.6173 6.00248 31.9254 6.13955L31.7204 6.60039C32.0231 6.73503 32.322 6.87615 32.617 7.02355L32.8424 6.57236C33.1455 6.72377 33.4444 6.88166 33.7391 7.04586L33.4936 7.48647C33.7829 7.64761 34.0679 7.81495 34.3486 7.9883L34.6136 7.55917C34.9017 7.73711 35.1852 7.92124 35.4641 8.11137L35.1799 8.5281C35.4533 8.71453 35.7221 8.90685 35.986 9.10487L36.2887 8.70143C36.5595 8.90457 36.8252 9.11358 37.0858 9.32827L36.765 9.71754C37.0203 9.92786 37.2705 10.1437 37.5153 10.365L37.8535 9.99073C38.1045 10.2176 38.3501 10.4499 38.5901 10.6876L38.2351 11.0459C38.47 11.2786 38.6993 11.5164 38.9228 11.7592L39.2939 11.4176C39.523 11.6664 39.7462 11.9203 39.9633 12.1792L39.5768 12.5033C39.789 12.7564 39.9953 13.0144 40.1953 13.2769L40.5965 12.9712C40.8014 13.2401 41 13.5138 41.192 13.792L40.7769 14.0785C40.9644 14.3501 41.1456 14.6262 41.3201 14.9065L41.7482 14.6399C41.9268 14.9267 42.0987 15.2179 42.2636 15.5132L41.8233 15.7591C41.9841 16.047 42.1381 16.3389 42.2852 16.6347L42.7368 16.4101C42.8872 16.7125 43.0304 17.0187 43.1663 17.3287L42.7044 17.5313C42.8367 17.833 42.9619 18.1383 43.0798 18.4469L43.551 18.267C43.6714 18.5822 43.7843 18.9008 43.8896 19.2227L43.4103 19.3795C43.5126 19.6923 43.6075 20.0082 43.6949 20.327L44.1813 20.1938C44.2704 20.5189 44.3517 20.847 44.4252 21.1779L43.9328 21.2872C44.0041 21.6081 44.0677 21.9317 44.1236 22.2579L44.6207 22.1727C44.6776 22.5046 44.7265 22.839 44.7674 23.1758L44.2667 23.2367C44.3063 23.5626 44.3382 23.8909 44.3621 24.2213L44.8651 24.1849Z" stroke="#827F7C" stroke-width="1.00877" stroke-dasharray="1.01 1.01"/>
<rect x="13.2072" y="28.2109" width="6.24734" height="13.114" transform="rotate(47.4756 13.2072 28.2109)" fill="white"/>
<rect width="17.0066" height="14.657" transform="matrix(0.689425 0.724357 -0.749331 0.662196 34.6183 2.47803)" fill="white"/>
<rect x="0.726332" y="-0.0102799" width="32.7434" height="10.2538" transform="matrix(0.7102 -0.704 0.729839 0.683619 8.45505 33.3938)" fill="white" stroke="#827F7C" stroke-width="1.00877"/>
<rect x="0.725834" y="-0.0279144" width="4.61152" height="4.62756" transform="matrix(0.69286 -0.721072 0.746194 0.665729 7.02715 39.1019)" fill="white" stroke="#827F7C" stroke-width="1.00877"/>
<line y1="-0.504383" x2="9.0053" y2="-0.504383" transform="matrix(0.720097 -0.693874 0.720097 0.693874 2.50537 46.8662)" stroke="#827F7C" stroke-width="1.00877"/>
<path d="M31.5692 6.37549L43.0326 17.4214" stroke="#827F7C" stroke-width="1.00877"/>
<line y1="-0.504383" x2="6.36771" y2="-0.504383" transform="matrix(0.720097 -0.693874 0.720097 0.693874 36.8956 10.7939)" stroke="#827F7C" stroke-width="1.00877"/>
<line y1="-0.504383" x2="6.36771" y2="-0.504383" transform="matrix(0.720097 -0.693874 0.720097 0.693874 39.1883 13.0029)" stroke="#827F7C" stroke-width="1.00877"/>
<path d="M38.6152 3.06152L42.6681 6.96686L46.721 10.8722M32.3103 15.7644L36.3632 19.6697M28.8713 18.5259L33.4974 22.9835M26.5786 21.8397L30.6315 25.745M23.1396 24.6012L27.7249 29.0195M20.8469 27.9149L24.8998 31.8203M17.3671 31.1895L21.42 35.0948" stroke="#827F7C" stroke-width="1.00877"/>
<path d="M28.7333 10.4361L9.56674 30.107M14.6106 35.1509L9.06238 29.6026" stroke="#80C8F0" stroke-width="1.51315"/>
</svg>
