<svg width="57" height="65" viewBox="0 0 57 65" fill="none" xmlns="http://www.w3.org/2000/svg">
<line x1="49.1875" y1="8.09968" x2="52.2672" y2="5.01999" stroke="#827F7C" stroke-width="1.49007" stroke-linecap="round"/>
<line x1="45.4624" y1="5.64999" x2="45.4624" y2="1.29463" stroke="#827F7C" stroke-width="1.49007" stroke-linecap="round"/>
<line x1="51.4226" y1="11.7252" x2="55.778" y2="11.7252" stroke="#827F7C" stroke-width="1.49007" stroke-linecap="round"/>
<path d="M11.1469 10.805C11.873 10.4177 12.1477 9.51515 11.7605 8.78903C11.3732 8.0629 10.4706 7.7882 9.7445 8.17547L11.1469 10.805ZM3.76509 25.881L2.39668 26.4707L2.42236 26.5303L2.45314 26.5874L3.76509 25.881ZM9.72543 38.5466L8.27985 38.9079L8.27985 38.9079L9.72543 38.5466ZM11.2155 51.9572L12.6291 51.4859L12.6291 51.4859L11.2155 51.9572ZM18.7444 63.7204C19.4805 64.0884 20.3755 63.7901 20.7436 63.054C21.1116 62.3179 20.8132 61.4229 20.0772 61.0549L18.7444 63.7204ZM31.6681 10.2798C30.8698 10.0802 30.0607 10.5656 29.8612 11.3639C29.6616 12.1623 30.147 12.9713 30.9453 13.1709L31.6681 10.2798ZM41.177 10.9688C41.9936 10.8667 42.5728 10.122 42.4707 9.30541C42.3687 8.48883 41.6239 7.9096 40.8074 8.01167L41.177 10.9688ZM9.7445 8.17547C3.67689 11.4115 1.74076 15.9794 1.42944 19.7997C1.27724 21.6673 1.51412 23.3155 1.78536 24.4927C1.92155 25.0837 2.06809 25.5633 2.18324 25.9015C2.24088 26.0707 2.29088 26.2052 2.32809 26.3012C2.34671 26.3492 2.36215 26.3876 2.37379 26.416C2.37961 26.4302 2.38448 26.4419 2.38832 26.451C2.39024 26.4556 2.3919 26.4595 2.3933 26.4628C2.39399 26.4644 2.39463 26.4659 2.39519 26.4672C2.39547 26.4679 2.39584 26.4687 2.39598 26.4691C2.39634 26.4699 2.39668 26.4707 3.76509 25.881C5.1335 25.2913 5.1338 25.292 5.13409 25.2926C5.13416 25.2928 5.13443 25.2934 5.13458 25.2938C5.13487 25.2945 5.13509 25.295 5.13525 25.2954C5.13557 25.2961 5.13563 25.2962 5.13543 25.2958C5.13503 25.2948 5.13363 25.2915 5.13128 25.2858C5.12659 25.2743 5.11816 25.2534 5.10658 25.2236C5.08341 25.1638 5.04775 25.0684 5.00431 24.9409C4.9173 24.6853 4.79999 24.3035 4.6894 23.8235C4.46708 22.8587 4.2787 21.5268 4.39973 20.0417C4.63484 17.1567 6.03902 13.5292 11.1469 10.805L9.7445 8.17547ZM3.76509 25.881C2.45314 26.5874 2.45313 26.5874 2.45315 26.5875C2.45318 26.5875 2.45322 26.5876 2.45328 26.5877C2.45341 26.5879 2.45361 26.5883 2.45389 26.5888C2.45446 26.5899 2.45534 26.5915 2.45653 26.5937C2.45891 26.5982 2.46253 26.6049 2.46734 26.6139C2.47696 26.6318 2.49138 26.6586 2.51029 26.6939C2.5481 26.7646 2.6039 26.8689 2.6753 27.0031C2.81812 27.2714 3.02331 27.6587 3.27201 28.1329C3.76967 29.0819 4.44022 30.3768 5.13315 31.7626C5.82708 33.1504 6.53831 34.6193 7.11969 35.9188C7.71544 37.2505 8.12922 38.3053 8.27985 38.9079L11.171 38.1852C10.9492 37.2977 10.4317 36.0243 9.84001 34.7018C9.23398 33.3472 8.50169 31.8359 7.79865 30.4298C7.09461 29.0218 6.41476 27.709 5.91126 26.7489C5.65937 26.2685 5.45129 25.8758 5.30599 25.6028C5.23333 25.4663 5.17634 25.3597 5.1374 25.287C5.11793 25.2506 5.10296 25.2228 5.09281 25.2038C5.08773 25.1944 5.08385 25.1872 5.08121 25.1823C5.07989 25.1798 5.07888 25.1779 5.07818 25.1766C5.07784 25.176 5.07757 25.1755 5.07738 25.1751C5.07728 25.175 5.0772 25.1748 5.07715 25.1747C5.07709 25.1746 5.07704 25.1745 3.76509 25.881ZM8.27985 38.9079C8.61167 40.2353 8.79217 42.8539 8.9839 45.6338C9.07666 46.9788 9.17143 48.3319 9.29091 49.4907C9.40599 50.607 9.55688 51.6933 9.8019 52.4284L12.6291 51.4859C12.5016 51.1034 12.3731 50.3272 12.2553 49.1851C12.142 48.0856 12.0505 46.7844 11.957 45.4287C11.7762 42.8071 11.5842 39.8379 11.171 38.1852L8.27985 38.9079ZM9.8019 52.4284C10.2202 53.6832 11.2147 55.8552 12.6851 58.0118C14.1463 60.155 16.1833 62.4398 18.7444 63.7204L20.0772 61.0549C18.1681 60.1003 16.48 58.2875 15.1474 56.333C13.8239 54.3919 12.9559 52.4662 12.6291 51.4859L9.8019 52.4284ZM30.9453 13.1709C32.9481 13.6716 34.2809 13.1096 35.6189 12.5361C36.8844 11.9938 38.4071 11.315 41.177 10.9688L40.8074 8.01167C37.617 8.41047 35.7871 9.22177 34.4449 9.79697C33.1753 10.3411 32.6455 10.5241 31.6681 10.2798L30.9453 13.1709Z" fill="#80C8F0"/>
<path d="M26.2722 43.0389C25.873 42.9391 25.4685 43.1818 25.3687 43.581C25.2689 43.9802 25.5116 44.3847 25.9108 44.4845L26.2722 43.0389ZM31.6187 62.9938C31.9535 63.233 32.4189 63.1554 32.658 62.8206C32.8972 62.4858 32.8196 62.0205 32.4848 61.7813L31.6187 62.9938ZM25.9108 44.4845C27.0427 44.7675 27.6959 45.595 28.0869 46.9793C28.4873 48.397 28.5591 50.231 28.6062 52.2538C28.6522 54.2311 28.6748 56.3746 29.0261 58.2523C29.3774 60.1297 30.0831 61.8969 31.6187 62.9938L32.4848 61.7813C31.4128 61.0156 30.8147 59.7096 30.4908 57.9782C30.1669 56.2472 30.143 54.2464 30.0958 52.2192C30.0498 50.2374 29.9819 48.2066 29.5209 46.5743C29.0504 44.9086 28.1204 43.501 26.2722 43.0389L25.9108 44.4845Z" fill="#80C8F0"/>
<path d="M7.72176 38.8917L6.98427 38.9975L6.98427 38.9975L7.72176 38.8917ZM8.44235 48.0996L7.69763 48.1213L7.69763 48.1213L8.44235 48.0996ZM9.15847 52.2369L8.45949 52.4948L8.45949 52.4948L9.15847 52.2369ZM19.1012 63.8233L19.0806 64.5681L19.0806 64.5681L19.1012 63.8233ZM44.1361 38.8917L43.3986 38.7859L43.3986 38.7859L44.1361 38.8917ZM43.4155 48.0996L44.1602 48.1213L44.1602 48.1213L43.4155 48.0996ZM42.6994 52.2369L43.3984 52.4948L43.3984 52.4948L42.6994 52.2369ZM32.7566 63.8233L32.7773 64.5681L32.7773 64.5681L32.7566 63.8233ZM25.023 43.7942C24.6115 43.7942 24.2779 44.1278 24.2779 44.5392C24.2779 44.9507 24.6115 45.2843 25.023 45.2843V43.7942ZM36.548 14.0192C36.9515 13.9388 37.2135 13.5465 37.1331 13.143C37.0528 12.7394 36.6605 12.4775 36.2569 12.5578L36.548 14.0192ZM10.2902 13.1343C10.6686 12.9728 10.8445 12.5351 10.683 12.1566C10.5214 11.7782 10.0837 11.6023 9.70526 11.7639L10.2902 13.1343ZM4.71879 24.6994C4.8084 25.101 5.20661 25.3539 5.6082 25.2643C6.00979 25.1747 6.26271 24.7765 6.17309 24.3749L4.71879 24.6994ZM25.9289 10.9485C23.9821 10.9485 22.2347 10.4619 20.5458 9.82747C19.6972 9.50866 18.8795 9.15909 18.0484 8.81419C17.2252 8.47255 16.3937 8.13766 15.5547 7.86786C13.8702 7.32616 12.1094 7.03113 10.197 7.46064C8.28671 7.88967 6.31505 9.02101 4.1615 11.1657L5.21296 12.2215C7.23189 10.2109 8.96475 9.26457 10.5235 8.91449C12.0801 8.56489 13.5527 8.78927 15.0986 9.28638C15.8748 9.536 16.6578 9.85037 17.4772 10.1905C18.2889 10.5273 19.1421 10.8919 20.0218 11.2224C21.7895 11.8864 23.7281 12.4386 25.9289 12.4386V10.9485ZM4.1615 11.1657C-0.330459 15.6391 0.35719 21.5029 2.08414 26.6624C2.95225 29.256 4.10841 31.7496 5.07526 33.8867C6.06473 36.0737 6.81314 37.8045 6.98427 38.9975L8.45924 38.7859C8.25107 37.3347 7.38738 35.3823 6.43285 33.2725C5.4557 31.1126 4.33597 28.6955 3.49715 26.1894C1.81025 21.1496 1.35995 16.0586 5.21296 12.2215L4.1615 11.1657ZM6.98427 38.9975C7.45721 42.2944 7.6328 45.901 7.69763 48.1213L9.18707 48.0778C9.12166 45.8378 8.94407 42.1657 8.45924 38.7859L6.98427 38.9975ZM8.45949 52.4948C9.15972 54.3928 10.3953 57.3223 12.1231 59.8086C13.8245 62.2569 16.1512 64.4867 19.0806 64.5681L19.1219 63.0786C16.9478 63.0182 14.9949 61.33 13.3467 58.9583C11.7249 56.6245 10.5409 53.8316 9.85745 51.9791L8.45949 52.4948ZM25.9289 12.4386C28.1298 12.4386 30.0683 11.8864 31.8361 11.2224C32.7157 10.8919 33.569 10.5273 34.3806 10.1905C35.2001 9.85037 35.9831 9.536 36.7593 9.28638C38.3051 8.78927 39.7778 8.56489 41.3344 8.91449C42.8931 9.26457 44.626 10.2109 46.6449 12.2215L47.6964 11.1657C45.5428 9.02101 43.5712 7.88967 41.6609 7.46064C39.7485 7.03113 37.9876 7.32616 36.3031 7.86786C35.4641 8.13766 34.6327 8.47255 33.8095 8.81419C32.9784 9.15909 32.1607 9.50866 31.3121 9.82747C29.6232 10.4619 27.8758 10.9485 25.9289 10.9485V12.4386ZM46.6449 12.2215C50.4979 16.0586 50.0476 21.1496 48.3607 26.1894C47.5219 28.6955 46.4022 31.1126 45.425 33.2725C44.4705 35.3823 43.6068 37.3347 43.3986 38.7859L44.8736 38.9975C45.0447 37.8045 45.7931 36.0737 46.7826 33.8867C47.7495 31.7496 48.9056 29.256 49.7737 26.6624C51.5007 21.5029 52.1883 15.6391 47.6964 11.1657L46.6449 12.2215ZM43.3986 38.7859C42.9138 42.1657 42.7362 45.8378 42.6708 48.0778L44.1602 48.1213C44.2251 45.901 44.4007 42.2944 44.8736 38.9975L43.3986 38.7859ZM42.0004 51.9791C41.3169 53.8317 40.1329 56.6245 38.5111 58.9583C36.863 61.33 34.9101 63.0182 32.7359 63.0786L32.7773 64.5681C35.7067 64.4867 38.0334 62.2569 39.7348 59.8086C41.4625 57.3223 42.6981 54.3928 43.3984 52.4948L42.0004 51.9791ZM19.0806 64.5681C20.2311 64.6 21.1715 64.29 21.8934 63.6551C22.5987 63.0347 23.0206 62.1694 23.2787 61.2255C23.7871 59.3656 23.7312 56.9038 23.6541 54.5496C23.5747 52.1275 23.4708 49.7935 23.7951 47.9796C23.9558 47.0808 24.2112 46.3805 24.5748 45.8843C24.9218 45.4109 25.3861 45.0952 26.0582 44.9768L25.7997 43.5093C24.7399 43.6961 23.9413 44.228 23.373 45.0035C22.8213 45.7563 22.5091 46.7061 22.3283 47.7174C21.9696 49.724 22.0878 52.2502 22.1648 54.5984C22.244 57.0143 22.2787 59.2326 21.8413 60.8326C21.6265 61.6186 21.3164 62.1781 20.9092 62.5362C20.5186 62.8798 19.9661 63.102 19.1219 63.0786L19.0806 64.5681ZM25.8447 44.9833C26.4944 45.0572 26.9331 45.3336 27.2618 45.7669C27.6114 46.2274 27.862 46.902 28.0207 47.792C28.3405 49.5861 28.2395 51.9336 28.1664 54.3853C28.0953 56.7693 28.0495 59.27 28.565 61.1624C28.8262 62.1213 29.2502 63.0007 29.9554 63.6324C30.6785 64.2801 31.6217 64.6002 32.7773 64.5681L32.7359 63.0786C31.8968 63.1019 31.344 62.8758 30.9496 62.5225C30.5373 62.1532 30.2222 61.5764 30.0027 60.7708C29.5568 59.134 29.583 56.8714 29.6558 54.4297C29.7266 52.0557 29.8414 49.5152 29.4876 47.5305C29.3095 46.5312 29.001 45.5937 28.4488 44.8661C27.8759 44.1111 27.0704 43.6231 26.0131 43.5028L25.8447 44.9833ZM26.0582 43.5093C25.8102 43.4657 25.5946 43.5291 25.4831 43.5676C25.3598 43.6102 25.2405 43.6683 25.1641 43.7054C25.0713 43.7504 25.0197 43.7756 24.9744 43.7933C24.9235 43.8132 24.9511 43.7942 25.023 43.7942V45.2843C25.2303 45.2843 25.4095 45.2231 25.5172 45.181C25.6304 45.1367 25.7443 45.0801 25.8147 45.0459C25.9015 45.0038 25.9432 44.9852 25.9694 44.9761C26.0075 44.963 25.9301 44.9998 25.7997 44.9768L26.0582 43.5093ZM26.0582 44.9768C26.0141 44.9846 25.9671 44.9825 25.9281 44.974C25.9014 44.9683 25.8888 44.9608 25.9331 44.9794C26.0099 45.0116 26.2346 45.1176 26.5402 45.1176V43.6275C26.5749 43.6275 26.6116 43.6481 26.5093 43.6052C26.4015 43.56 26.1435 43.4488 25.7997 43.5093L26.0582 44.9768ZM42.6708 48.0778C42.631 49.4402 42.4516 50.7561 42.0004 51.9791L43.3984 52.4948C43.9243 51.0692 44.1177 49.5795 44.1602 48.1213L42.6708 48.0778ZM7.69763 48.1213C7.74021 49.5795 7.93353 51.0692 8.45949 52.4948L9.85745 51.9791C9.40625 50.7561 9.22685 49.4402 9.18707 48.0778L7.69763 48.1213ZM25.847 12.4341C29.1869 12.8037 30.8009 13.3732 32.0837 13.7695C32.7372 13.9714 33.3511 14.144 34.0606 14.2065C34.7747 14.2693 35.5498 14.218 36.548 14.0192L36.2569 12.5578C35.3586 12.7368 34.7297 12.7695 34.1912 12.7221C33.6481 12.6744 33.1608 12.5427 32.5235 12.3458C31.2248 11.9447 29.4986 11.339 26.0109 10.9531L25.847 12.4341ZM9.70526 11.7639C6.95657 12.937 5.22069 14.3778 4.4586 16.5462C3.71913 18.6503 3.95794 21.2896 4.71879 24.6994L6.17309 24.3749C5.4167 20.9851 5.27623 18.7137 5.86438 17.0403C6.4299 15.4312 7.72853 14.2277 10.2902 13.1343L9.70526 11.7639Z" fill="#827F7C"/>
</svg>
