<svg width="41" height="43" viewBox="0 0 41 43" fill="none" xmlns="http://www.w3.org/2000/svg">
<path d="M19.1373 5.31025C19.1373 5.31025 23.2755 6.08745 25.3276 5.75241C27.1098 5.46144 28.4234 4.13021 29.7146 2.82165C31.1649 1.35193 32.5869 -0.0891929 34.613 0.00431696C38.76 0.195715 40.1944 3.56368 40.8032 7.52106C41.2114 10.174 40.7294 42.0096 27.5384 42.0096C24.0011 42.0096 21.7903 39.7988 21.7903 39.7988C21.7903 39.7988 25.1632 40.6795 26.6541 40.241C34.1708 38.0302 36.8238 17.2486 34.1708 10.174C32.63 6.06512 31.667 6.44512 29.8275 7.17097C28.7368 7.60137 27.3379 8.15338 25.3276 7.96322C23.0212 7.74505 19.1373 5.31025 19.1373 5.31025Z" fill="#1C1812"/>
<path d="M1.89308 13.7113C1.89308 13.7113 -2.52854 5.31025 4.10386 2.21512C9.75867 -0.423798 12.8522 1.87952 16.6472 4.70513C17.3033 5.19362 17.9803 5.69772 18.6952 6.19458C21.6091 8.21991 24.331 9.11204 25.4688 9.48496C26.0575 9.67791 26.2221 9.73186 25.7698 9.73186C24.4433 9.73186 19.1373 8.84754 15.6001 6.63674C12.0628 4.42593 6.14711 4.10556 3.21954 6.63674C0.414964 9.06156 1.89308 13.7113 1.89308 13.7113Z" fill="#1C1812"/>
<path d="M8.52547 39.3567C8.52547 39.3567 9.73798 42.118 12.0628 42.4518C14.3875 42.7856 16.3184 41.0152 17.3687 38.9145C17.8206 38.0108 18.065 36.3915 18.2965 34.8578C18.7445 31.8894 19.1442 29.2416 20.906 32.7243C20.906 32.7243 21.9392 25.1402 19.1373 25.6497C16.6524 26.1015 16.2936 29.4386 15.9225 32.8898C15.5673 36.1936 15.2008 39.6019 12.9471 40.6832C11.6206 41.3196 8.52547 39.3567 8.52547 39.3567Z" fill="#1C1812"/>
</svg>
