<svg width="130" height="137" viewBox="0 0 130 137" fill="none" xmlns="http://www.w3.org/2000/svg">
<path d="M66.5 19.963C95.5 17.963 91.8819 -0.864895 111.054 0.0309596C124.214 0.645911 130 14.0461 130 27.2453C130 54.4684 110.778 136.963 82.3479 136.963C70.8457 136.963 66.0438 122.687 66.0438 112.215C90.2069 167.786 120.382 55.4219 114.855 28.2453C109.327 1.06861 91.9205 29.5788 66.5 19.963Z" fill="#27292D"/>
<path d="M5.51633 53.1875C5.51633 53.1875 -10.3295 13.5524 11.6915 2.49698C31.4097 -7.40235 53.5 20.6458 79.5 27.2453C58.5 30.2453 27.8655 5.04944 10.0483 20.6458C1.14813 28.4366 5.51633 53.1875 5.51633 53.1875Z" fill="#27292D"/>
<path d="M21.5505 112.215C21.5505 112.215 27.1357 136.949 38.3974 136.949C52.7165 136.949 55.9692 117.781 57.7003 107.265C58.761 100.822 64.9831 100.438 66.0438 106.881C66.0438 106.881 67.5659 83.7928 60.21 83.7928C48.9772 83.7928 54.4139 130.363 38.3974 130.363C27.3016 130.363 21.5505 112.215 21.5505 112.215Z" fill="#27292D"/>
</svg>
