<svg width="335" height="137" viewBox="0 0 335 137" fill="none" xmlns="http://www.w3.org/2000/svg">
<path d="M66.5 19.963C95.5 17.963 91.8819 -0.864895 111.054 0.0309595C124.214 0.645911 130 13.0461 130 27.2453C130 73.5 110.778 136.963 82.3479 136.963C70.8457 136.963 66.0438 122.687 66.0438 112.215C96 158.5 119.382 60.4219 111.855 31.2453C104.327 2.06861 91.9205 29.5788 66.5 19.963Z" fill="#35383D"/>
<path d="M5.51633 53.1875C5.51633 53.1875 -10.3295 13.5524 11.6915 2.49698C31.4097 -7.40235 53.5 20.6458 79.5 27.2453C58.5 30.2453 30.8655 6.04944 13.0483 21.6458C4.14813 29.4366 5.51633 53.1875 5.51633 53.1875Z" fill="#35383D"/>
<path d="M21.5505 112.215C21.5505 112.215 27.1357 136.949 38.3974 136.949C52.7165 136.949 55.9692 117.781 57.7003 107.265C58.761 100.822 64.9831 100.438 66.0438 106.881C66.0438 106.881 67.5659 83.7928 60.21 83.7928C48.9772 83.7928 54.4139 124.363 38.3974 124.363C27.3016 124.363 21.5505 112.215 21.5505 112.215Z" fill="#35383D"/>
<path d="M152.18 32.2H176.674C182.347 32.2 187.379 33.2607 191.77 35.382C196.161 37.5033 199.565 40.5127 201.982 44.41C204.399 48.3073 205.608 52.8707 205.608 58.1C205.608 63.3293 204.399 67.8927 201.982 71.79C199.565 75.6873 196.161 78.6967 191.77 80.818C187.379 82.9393 182.347 84 176.674 84H152.18V32.2ZM176.082 72.308C180.522 72.308 184.074 71.05 186.738 68.534C189.451 66.018 190.808 62.54 190.808 58.1C190.808 53.66 189.451 50.182 186.738 47.666C184.074 45.15 180.522 43.892 176.082 43.892H166.832V72.308H176.082ZM238.921 70.236H230.929V84H216.277V32.2H239.957C244.643 32.2 248.713 32.9893 252.167 34.568C255.62 36.0973 258.284 38.3173 260.159 41.228C262.033 44.0893 262.971 47.4687 262.971 51.366C262.971 55.1153 262.083 58.396 260.307 61.208C258.58 63.9707 256.089 66.1413 252.833 67.72L264.007 84H248.319L238.921 70.236ZM248.171 51.366C248.171 48.9487 247.406 47.074 245.877 45.742C244.347 44.41 242.078 43.744 239.069 43.744H230.929V58.914H239.069C242.078 58.914 244.347 58.2727 245.877 56.99C247.406 55.658 248.171 53.7833 248.171 51.366ZM284.317 43.818H268.407V32.2H314.805V43.818H298.969V84H284.317V43.818Z" fill="#35383D"/>
<path d="M175.04 101.836V133H168.782V130.396C167.158 132.356 164.806 133.336 161.726 133.336C159.598 133.336 157.666 132.86 155.93 131.908C154.222 130.956 152.878 129.598 151.898 127.834C150.918 126.07 150.428 124.026 150.428 121.702C150.428 119.378 150.918 117.334 151.898 115.57C152.878 113.806 154.222 112.448 155.93 111.496C157.666 110.544 159.598 110.068 161.726 110.068C164.61 110.068 166.864 110.978 168.488 112.798V101.836H175.04ZM162.86 127.96C164.512 127.96 165.884 127.4 166.976 126.28C168.068 125.132 168.614 123.606 168.614 121.702C168.614 119.798 168.068 118.286 166.976 117.166C165.884 116.018 164.512 115.444 162.86 115.444C161.18 115.444 159.794 116.018 158.702 117.166C157.61 118.286 157.064 119.798 157.064 121.702C157.064 123.606 157.61 125.132 158.702 126.28C159.794 127.4 161.18 127.96 162.86 127.96ZM204.918 121.786C204.918 121.87 204.876 122.458 204.792 123.55H187.698C188.006 124.95 188.734 126.056 189.882 126.868C191.03 127.68 192.458 128.086 194.166 128.086C195.342 128.086 196.378 127.918 197.274 127.582C198.198 127.218 199.052 126.658 199.836 125.902L203.322 129.682C201.194 132.118 198.086 133.336 193.998 133.336C191.45 133.336 189.196 132.846 187.236 131.866C185.276 130.858 183.764 129.472 182.7 127.708C181.636 125.944 181.104 123.942 181.104 121.702C181.104 119.49 181.622 117.502 182.658 115.738C183.722 113.946 185.164 112.56 186.984 111.58C188.832 110.572 190.89 110.068 193.158 110.068C195.37 110.068 197.372 110.544 199.164 111.496C200.956 112.448 202.356 113.82 203.364 115.612C204.4 117.376 204.918 119.434 204.918 121.786ZM193.2 115.024C191.716 115.024 190.47 115.444 189.462 116.284C188.454 117.124 187.838 118.272 187.614 119.728H198.744C198.52 118.3 197.904 117.166 196.896 116.326C195.888 115.458 194.656 115.024 193.2 115.024ZM224.694 110.068C227.494 110.068 229.748 110.908 231.456 112.588C233.192 114.268 234.06 116.76 234.06 120.064V133H227.508V121.072C227.508 119.28 227.116 117.95 226.332 117.082C225.548 116.186 224.414 115.738 222.93 115.738C221.278 115.738 219.962 116.256 218.982 117.292C218.002 118.3 217.512 119.812 217.512 121.828V133H210.96V110.404H217.218V113.05C218.086 112.098 219.164 111.37 220.452 110.866C221.74 110.334 223.154 110.068 224.694 110.068ZM256.253 131.908C255.609 132.384 254.811 132.748 253.859 133C252.935 133.224 251.955 133.336 250.919 133.336C248.231 133.336 246.145 132.65 244.661 131.278C243.205 129.906 242.477 127.89 242.477 125.23V115.948H238.991V110.908H242.477V105.406H249.029V110.908H254.657V115.948H249.029V125.146C249.029 126.098 249.267 126.84 249.743 127.372C250.247 127.876 250.947 128.128 251.843 128.128C252.879 128.128 253.761 127.848 254.489 127.288L256.253 131.908ZM261.611 110.404H268.163V133H261.611V110.404ZM264.887 107.254C263.683 107.254 262.703 106.904 261.947 106.204C261.191 105.504 260.813 104.636 260.813 103.6C260.813 102.564 261.191 101.696 261.947 100.996C262.703 100.296 263.683 99.946 264.887 99.946C266.091 99.946 267.071 100.282 267.827 100.954C268.583 101.626 268.961 102.466 268.961 103.474C268.961 104.566 268.583 105.476 267.827 106.204C267.071 106.904 266.091 107.254 264.887 107.254ZM283.526 133.336C281.65 133.336 279.816 133.112 278.024 132.664C276.232 132.188 274.804 131.6 273.74 130.9L275.924 126.196C276.932 126.84 278.15 127.372 279.578 127.792C281.006 128.184 282.406 128.38 283.778 128.38C286.55 128.38 287.936 127.694 287.936 126.322C287.936 125.678 287.558 125.216 286.802 124.936C286.046 124.656 284.884 124.418 283.316 124.222C281.468 123.942 279.942 123.62 278.738 123.256C277.534 122.892 276.484 122.248 275.588 121.324C274.72 120.4 274.286 119.084 274.286 117.376C274.286 115.948 274.692 114.688 275.504 113.596C276.344 112.476 277.548 111.608 279.116 110.992C280.712 110.376 282.588 110.068 284.744 110.068C286.34 110.068 287.922 110.25 289.49 110.614C291.086 110.95 292.402 111.426 293.438 112.042L291.254 116.704C289.266 115.584 287.096 115.024 284.744 115.024C283.344 115.024 282.294 115.22 281.594 115.612C280.894 116.004 280.544 116.508 280.544 117.124C280.544 117.824 280.922 118.314 281.678 118.594C282.434 118.874 283.638 119.14 285.29 119.392C287.138 119.7 288.65 120.036 289.826 120.4C291.002 120.736 292.024 121.366 292.892 122.29C293.76 123.214 294.194 124.502 294.194 126.154C294.194 127.554 293.774 128.8 292.934 129.892C292.094 130.984 290.862 131.838 289.238 132.454C287.642 133.042 285.738 133.336 283.526 133.336ZM314.491 131.908C313.847 132.384 313.049 132.748 312.097 133C311.173 133.224 310.193 133.336 309.157 133.336C306.469 133.336 304.383 132.65 302.899 131.278C301.443 129.906 300.715 127.89 300.715 125.23V115.948H297.229V110.908H300.715V105.406H307.267V110.908H312.895V115.948H307.267V125.146C307.267 126.098 307.505 126.84 307.981 127.372C308.485 127.876 309.185 128.128 310.081 128.128C311.117 128.128 311.999 127.848 312.727 127.288L314.491 131.908Z" fill="#5D626B"/>
</svg>
